<?xml version="1.0" encoding="UTF-8"?>
<svg xmlns="http://www.w3.org/2000/svg" version="1.1" viewBox="0 0 255.1 155.9">
  <defs>
    <style>
      .cls-1 {
        fill: none;
        stroke: #b1ba97;
        stroke-miterlimit: 10;
        stroke-width: .2px;
      }

      .cls-2 {
        fill: #ee6a40;
      }

      .cls-3 {
        fill: #fcfdfb;
      }

      .cls-4 {
        fill: #f36f35;
      }

      .cls-5 {
        fill: #4c5b42;
      }

      .cls-6 {
        fill: #b1ba97;
      }

      .cls-7 {
        fill: #d2e284;
      }

      .cls-8 {
        fill: #787e5c;
      }

      .cls-9 {
        fill: #818963;
      }
    </style>
  </defs>
  <!-- Generator: Adobe Illustrator 28.7.1, SVG Export Plug-In . SVG Version: 1.2.0 Build 142)  -->
  <g>
    <g id="Layer_1">
      <rect class="cls-7" x="-5.7" y="-5.7" width="266.5" height="167.2"/>
      <g>
        <g>
          <path class="cls-5" d="M17.5,136.6c-.6,0-1.1.5-1.1,1.1s.5,1.1,1.1,1.1,1.1-.5,1.1-1.1-.5-1.1-1.1-1.1ZM17.5,138.4c-.4,0-.7-.3-.7-.7s.3-.7.7-.7.7.3.7.7-.3.7-.7.7ZM17.5,135.3c-1.4,0-2.5,1.1-2.5,2.5,0,.9.4,1.8,1.2,2.7.3.4.7.8,1.2,1.1,0,0,.2,0,.3,0,.4-.3.8-.7,1.2-1.1.8-.9,1.2-1.8,1.2-2.7,0-1.4-1.1-2.5-2.5-2.5ZM17.5,141.1c-.5-.4-2-1.7-2-3.3s.9-2,2-2,2,.9,2,2c0,1.6-1.6,2.9-2,3.3Z"/>
          <g>
            <path class="cls-5" d="M33.1,138.3c.4.3.5.8.5,1.4,0,.5-.2,1-.6,1.3-.4.3-.9.5-1.5.5s-1-.2-1.4-.5c-.4-.3-.6-.8-.7-1.4,0-.6,0-1.1.2-1.6.2-.5.4-.9.8-1.2.7-.6,1.5-1,2.5-1v.2c-1.1.2-1.7.9-1.9,2.1,0,0,.2-.2.4-.2.1,0,.3,0,.4-.1.6,0,1.1,0,1.5.4ZM32.2,139.6c-.2-.9-.6-1.4-1-1.3-.2,0-.4.2-.4.5,0,.3,0,.7,0,1.1,0,.5.2.8.4,1s.4.3.6.3c.4,0,.6-.6.4-1.6Z"/>
            <path class="cls-5" d="M41.1,139.9c0,.5-.2.9-.7,1.2s-1.2.4-2.1.4h-2.6v-.2c.3,0,.5,0,.6-.2.1-.2.2-.4.2-.7v-3.3c0-.3,0-.5-.2-.7-.1-.2-.3-.2-.6-.2v-.2h2.4c1.8,0,2.6.4,2.6,1.4s-.4,1-1.1,1.2c1,.2,1.5.7,1.5,1.4ZM37.8,136.2v2.1h.3c.8,0,1.2-.4,1.2-1.1s0-.6-.3-.8-.4-.3-.8-.3h-.4ZM38.3,141.1c.5,0,.8-.1,1-.3.2-.2.3-.5.3-.9s-.1-.7-.3-.9c-.2-.2-.6-.3-1-.3h-.5v2.5h.5Z"/>
            <path class="cls-5" d="M46.1,141.2c-.2.2-.5.3-.8.3-.2,0-.5,0-.7-.1-.2,0-.3-.2-.4-.4-.2.4-.6.5-1.1.5s-.7,0-.9-.2c-.3-.1-.4-.3-.5-.6,0-.3,0-.6.2-.8.2-.2.5-.4.9-.5.1,0,.3,0,.4,0,.2,0,.3,0,.3,0,0,0,.2,0,.2,0,.1,0,.2-.2.1-.4,0-.6-.3-.8-.6-.8-.2,0-.4,0-.5.2,0,.2,0,.3,0,.5,0,.2-.2.3-.4.3-.1,0-.3,0-.4,0-.2-.1-.3-.3-.2-.6,0-.2.3-.4.5-.5.3,0,.5-.1.8-.1.6,0,1.1.1,1.4.3.3.2.5.6.6,1.1l.2,1.1c0,.4.1.6.2.7,0,.1.2.1.4,0v.2ZM44.1,140.2c0-.3,0-.6,0-.8,0,0,0,.1-.1.1s-.2,0-.4.1c-.4.1-.6.4-.5.8,0,.2.1.3.3.4.1,0,.3.1.5,0,.3,0,.5-.4.5-.8Z"/>
            <path class="cls-5" d="M51.2,140.3c0,.1,0,.2,0,.3,0,0,0,.1,0,.2,0,.1,0,.2.1.2,0,0,.3.2.5.2v.2h-2.6v-.2c.2,0,.3,0,.4-.1.2-.2.2-.5.1-.8,0-.5-.1-.8-.2-1,0-.1,0-.2,0-.3,0,0,0-.1,0-.2,0,0,0-.2-.1-.2,0,0-.2-.2-.5-.2-.5,0-.7.4-.7,1v1c0,.3,0,.5.1.7,0,.2.3.2.5.2v.2h-2.6v-.2c.3,0,.5,0,.6-.2,0-.2.1-.4.1-.7v-.8c0-.3,0-.5-.1-.7s-.3-.2-.6-.2v-.2c.3,0,.6,0,.9-.2.3-.1.6-.3.9-.5h.2v.6c.3-.4.7-.6,1.3-.6.8,0,1.2.4,1.4,1.4l.2,1.1Z"/>
            <path class="cls-5" d="M56.8,140.7c.2.3.4.5.8.5v.2h-2.3v-.2c.3,0,.3-.1.2-.4l-.6-1.2-.5.4v.2c0,.3,0,.5.1.7,0,.2.3.2.6.2v.2h-2.7v-.2c.3,0,.5,0,.6-.2,0-.2.1-.4.1-.7v-2.7c0-.3,0-.5-.1-.7,0-.2-.3-.2-.6-.2v-.2c.3,0,.6,0,.9-.2.3-.1.6-.3.9-.5h.2v3.8l1.3-1.1c.3-.3.3-.5-.1-.5v-.2h1.6v.2c-.4,0-.8.2-1.3.6h-.1c0,0,1.1,2,1.1,2Z"/>
            <path class="cls-5" d="M63.9,138.7c.4.4.6.8.5,1.4,0,.3-.2.6-.5.9-.3.2-.6.4-.9.5-.3,0-.7.1-1.1.1-.5,0-1-.2-1.4-.4-.4-.2-.7-.5-.7-.9,0-.3,0-.6.2-.8s.4-.3.7-.3c.3,0,.5.1.6.3.2.2.2.3.2.5-.2,0-.4,0-.5.2s-.2.3-.1.5c0,.4.4.6,1,.6.3,0,.6,0,.9-.2s.4-.3.4-.6c0-.2,0-.3,0-.4,0-.1-.1-.2-.3-.4-.1-.1-.3-.2-.4-.3,0,0-.3-.2-.6-.3,0,0,0,0-.1,0-.5-.3-.9-.5-1.1-.6-.5-.4-.7-.8-.7-1.3,0-.6.3-1,.8-1.2.4-.2.9-.2,1.3-.2.2,0,.3,0,.5,0,.2,0,.3,0,.3,0,.3,0,.4.1.5-.2h.2v1.8c.1,0-.1,0-.1,0-.1-.5-.3-.9-.5-1.1-.2-.2-.5-.4-.9-.4-.3,0-.5,0-.7.1-.2.1-.3.3-.3.5,0,.2.1.5.4.7.1,0,.3.2.4.3.1,0,.3.1.5.2.2,0,.3.2.4.2.5.3.8.5,1,.6Z"/>
            <path class="cls-5" d="M67.3,140.6c-.2.6-.6.9-1.1.9s-.6-.1-.8-.3-.3-.5-.3-.9v-2.1h-.6v-.3c.4,0,.8-.1,1.1-.4.3-.2.5-.6.6-1h.3v1.4h.8v.3h-.8v2.2c0,.4.1.5.3.5.2,0,.4,0,.5-.3h.2Z"/>
            <path class="cls-5" d="M69.2,140.3c.2.1.2.3.2.5,0,.4-.1.7-.3,1-.2.3-.5.5-.8.6v-.2c.1-.2.3-.5.4-.8-.2,0-.4,0-.6-.2-.2-.1-.2-.3-.2-.5s0-.4.2-.5c.2-.1.4-.2.6-.2s.4,0,.6.2Z"/>
            <path class="cls-5" d="M75.8,135.8h1.8v.2c-.3,0-.5,0-.6.2,0,.1-.1.4-.1.7v4.5h-.5l-3.7-4.6v3.5c0,.3,0,.6.2.7.1.1.3.2.6.2v.2h-1.8v-.2c.3,0,.5,0,.6-.2,0-.1.1-.4.1-.7v-3.3c0-.3,0-.5-.1-.7s-.3-.2-.6-.2v-.2h2.1l2.8,3.4v-2.3c0-.3,0-.6-.2-.7-.1-.1-.3-.2-.6-.2v-.2Z"/>
            <path class="cls-5" d="M79.8,140.3c0,.3,0,.5,0,.6,0,.2.3.3.6.3v.2h-2.6v-.2c.3,0,.5,0,.6-.2,0-.2.1-.4.1-.7v-.8c0-.3,0-.5-.1-.7s-.3-.2-.6-.2v-.2c.3,0,.6,0,.9-.2.3-.1.6-.3.8-.5h.2v2.6ZM79.2,137.5c-.2,0-.3,0-.5-.2-.1-.1-.2-.3-.2-.4s0-.3.2-.4c.1-.1.3-.2.5-.2s.3,0,.5.2c.1.1.2.3.2.4s0,.3-.2.4c-.1.1-.3.2-.5.2Z"/>
            <path class="cls-5" d="M83.5,140.6c-.2.6-.6.9-1.1.9s-.6-.1-.8-.3-.3-.5-.3-.9v-2.1h-.6v-.3c.4,0,.8-.1,1.1-.4.3-.2.5-.6.6-1h.3v1.4h.8v.3h-.8v2.2c0,.4.1.5.3.5.2,0,.4,0,.5-.3h.2Z"/>
            <path class="cls-5" d="M87.7,138.1c.1.2.1.4,0,.7,0,.2-.2.4-.4.4-.2,0-.4,0-.5,0,.1-.4,0-.6-.2-.7-.2,0-.3,0-.5,0-.1,0-.2.2-.2.4v1.3c0,.3,0,.5.1.7,0,.2.3.2.5.2v.2h-2.6v-.2c.3,0,.5,0,.6-.2,0-.2.1-.4.1-.7v-.8c0-.3,0-.5-.1-.7,0-.2-.3-.2-.6-.2v-.2c.3,0,.6,0,.9-.2.3-.1.6-.3.9-.5h.2v.7c.3-.6.7-.8,1.2-.7.3,0,.5.2.6.4Z"/>
            <path class="cls-5" d="M91.6,138.3c.4.3.6.8.6,1.4s-.2,1-.6,1.4c-.4.3-.9.5-1.5.5s-1.1-.2-1.5-.5c-.4-.3-.6-.8-.6-1.4s.2-1,.6-1.4c.4-.3.9-.5,1.5-.5s1.1.2,1.5.5ZM90.9,140.7c0-.3,0-.7,0-1.2,0-.5-.2-.9-.4-1.1-.2-.3-.4-.4-.6-.3-.2,0-.4.2-.5.5,0,.3,0,.7,0,1.2,0,.5.2.8.4,1.1.2.3.4.4.6.3.2,0,.4-.2.5-.5Z"/>
            <path class="cls-5" d="M94.1,140.3c.2.1.2.3.2.5,0,.4-.1.7-.3,1-.2.3-.5.5-.8.6v-.2c.1-.2.3-.5.4-.8-.2,0-.4,0-.6-.2-.2-.1-.2-.3-.2-.5s0-.4.2-.5c.2-.1.4-.2.6-.2s.4,0,.6.2Z"/>
            <path class="cls-5" d="M103.5,135.8h2v.2c-.3,0-.5,0-.7.3,0,0-.1.2-.2.3,0,0,0,.2-.2.4l-1.6,4.5h-.4l-1.5-3.6-1.3,3.6h-.4l-1.9-4.5c-.2-.4-.3-.6-.4-.7-.1-.1-.3-.2-.5-.2v-.2h2.8v.2c-.6,0-.7.3-.4.9l1.2,2.7.8-2.3-.2-.4s0,0,0-.2c0,0,0-.2,0-.2,0,0,0,0,0-.1,0,0,0-.1,0-.1,0,0-.1-.2-.2-.2,0,0-.2,0-.3,0v-.2h2.8v.2c-.6,0-.7.3-.5.9l1.1,2.7,1-2.7c.2-.7,0-.9-.6-.9v-.2Z"/>
            <path class="cls-5" d="M109.9,135.8h2v.2c-.3,0-.5,0-.6.2-.1.2-.3.4-.4.7l-1.7,4.5h-.4l-1.9-4.5s0-.1-.1-.2c0-.1,0-.2-.1-.2,0,0,0,0-.1-.2,0,0-.1-.1-.2-.2,0,0-.3-.1-.5-.1v-.2h2.8v.2c-.6,0-.7.3-.4.9l1.2,2.8,1.1-2.8c.2-.7,0-.9-.6-.9v-.2Z"/>
            <path class="cls-5" d="M118,139.5v2h-3.9c0-.5,0-.9.2-1.3.2-.4.5-.7.9-1.1s.7-.6.9-.9c.2-.3.3-.5.4-.8.1-.4.1-.7,0-1,0-.3-.3-.4-.6-.4-.2,0-.4,0-.5.2-.1.1-.2.3-.3.4,0,.5.2.7.6.7,0,.2,0,.3-.2.5-.1.1-.3.2-.6.2s-.5-.1-.6-.3-.2-.5,0-.8c0-.3.3-.6.6-.8.3-.2.7-.3,1.2-.3s1,.1,1.4.4c.4.3.6.6.6,1.1,0,.4-.2.8-.4,1,0,.1-.2.2-.4.4s-.3.2-.4.3c-.1,0-.3.1-.5.2-.3.1-.4.2-.5.3-.1,0-.2.1-.4.3-.4.2-.5.5-.7.7h1.8c.4,0,.7,0,.9-.2.2-.1.4-.4.5-.7h.2Z"/>
            <path class="cls-5" d="M119.4,138c1.1-.4,1.9-.3,2.6,0,.6.4.9,1,.8,1.8,0,.6-.3,1-.7,1.3-.4.3-.9.5-1.4.5s-.9-.1-1.3-.3c-.4-.2-.6-.5-.7-.8,0-.3,0-.6,0-.8.2-.2.4-.3.7-.3s.4,0,.6.2c.1.1.2.3.2.5-.2,0-.3,0-.4.2-.1.1-.1.3-.1.6,0,.2.1.3.3.4.2,0,.4.1.6.1.6,0,1-.5.9-1.5,0,0,0-.2,0-.3,0-.2-.1-.4-.2-.6-.1-.2-.3-.4-.6-.5-.3,0-.7-.1-1.2,0h-.2l.2-2.5h2.3c.4,0,.7-.1.8-.3h.2v1.4h-3v1.1Z"/>
            <path class="cls-5" d="M125,140.3c0,.3,0,.5.1.7,0,.2.3.2.6.2v.2h-2.7v-.2c.3,0,.5,0,.6-.2,0-.2.1-.4.1-.7v-2.6c0-.3,0-.5-.1-.7,0-.2-.3-.2-.6-.2v-.2l1.8-.8h.2v4.5Z"/>
            <path class="cls-5" d="M130.5,140h-.9v.3c0,.3,0,.5.1.7,0,.2.3.2.6.2v.2h-2.7v-.2c.3,0,.5,0,.6-.2,0-.2.1-.4.1-.7v-.3h-2.4v-.2l2.7-4h1v3.8h.9v.4ZM126.4,139.7h1.8v-2.7l-1.8,2.7Z"/>
            <path class="cls-5" d="M133.3,138.1c.6,0,1.1.1,1.5.5.4.3.5.8.5,1.3,0,.6-.3,1-.7,1.3-.4.3-.9.4-1.5.4s-.9-.1-1.3-.3c-.4-.2-.6-.5-.7-.8,0-.3,0-.6,0-.8.2-.2.4-.3.6-.3s.4,0,.6.2c.1.1.2.3.2.5-.4,0-.6.2-.6.7,0,.2.1.3.3.4s.4.1.6.1c.7,0,.9-.5.9-1.5,0-.3,0-.6-.2-.8-.2-.3-.5-.4-1-.4v-.2l1.3-1.3h-1.5c-.4,0-.7,0-.7.3h-.2v-1.4h3.6v.5l-1.7,1.7Z"/>
          </g>
        </g>
        <g>
          <g>
            <path class="cls-5" d="M184.3,140.4c.2.6.5,1,.9,1.3v.2c-1.6-.7-2.4-1.8-2.4-3.3s.8-2.6,2.3-3.3v.2c-.3.3-.6.8-.9,1.3-.2.6-.3,1.2-.3,1.8s.1,1.3.3,1.8Z"/>
            <path class="cls-5" d="M189.4,138.3c.4.3.5.8.5,1.4,0,.5-.2,1-.6,1.3-.4.3-.9.5-1.5.5s-1-.2-1.4-.5c-.4-.3-.6-.8-.7-1.4,0-.6,0-1.1.2-1.6.2-.5.4-.9.8-1.2.7-.6,1.5-1,2.5-1v.2c-1.1.2-1.7.9-1.9,2.1,0,0,.2-.2.4-.2.1,0,.3,0,.4-.1.6,0,1.1,0,1.5.4ZM188.5,139.6c-.2-.9-.6-1.4-1-1.3-.2,0-.4.2-.4.5,0,.3,0,.7,0,1.1,0,.5.2.8.4,1,.2.2.4.3.6.3.4,0,.6-.6.4-1.6Z"/>
            <path class="cls-5" d="M194.5,140c0,.5-.2.8-.5,1.1-.3.3-.9.4-1.6.4s-1.2-.1-1.6-.4c-.4-.2-.6-.6-.6-1s.1-.6.3-.9c.2-.3.5-.4,1-.6-.7-.4-1.1-.9-1.1-1.4,0-.5.2-.9.6-1.1.4-.3.9-.4,1.4-.4s1,.1,1.4.4c.3.2.5.6.5,1.1,0,.3-.1.5-.3.7-.2.2-.4.4-.7.5.8.4,1.3.9,1.2,1.5ZM193,141c.2-.2.2-.4.2-.7,0-.1,0-.3-.2-.4,0-.1-.2-.3-.3-.3,0,0-.3-.2-.4-.3,0,0-.1,0-.2-.1,0,0-.1,0-.2,0,0,0,0,0-.1,0h0c-.2.1-.4.4-.4.6,0,.3,0,.5,0,.8,0,.2.2.4.4.6s.4.3.6.3.4,0,.6-.3ZM193.2,137.6c0-.3,0-.5,0-.7s-.1-.4-.3-.6c-.1-.2-.3-.2-.6-.2-.2,0-.3,0-.5.2-.1.1-.2.3-.2.5,0,.6.5,1,1.3,1.4,0-.2.2-.4.2-.6Z"/>
            <path class="cls-5" d="M196.9,140.3c0,.3,0,.5.1.7,0,.2.3.2.6.2v.2h-2.7v-.2c.3,0,.5,0,.6-.2,0-.2.1-.4.1-.7v-2.6c0-.3,0-.5-.1-.7,0-.2-.3-.2-.6-.2v-.2l1.8-.8h.2v4.5Z"/>
            <path class="cls-5" d="M198.2,135.2c1.5.7,2.3,1.8,2.3,3.3,0,1.5-.8,2.6-2.3,3.3v-.2c.3-.3.6-.7.9-1.3.2-.6.3-1.2.3-1.8s-.1-1.3-.3-1.8c-.2-.6-.5-1-1-1.3v-.2Z"/>
            <path class="cls-5" d="M206.7,139.5v2h-3.9c0-.5,0-.9.2-1.3.2-.4.5-.7.9-1.1s.7-.6.9-.9c.2-.3.3-.5.4-.8.1-.4.1-.7,0-1,0-.3-.3-.4-.6-.4-.2,0-.4,0-.5.2-.1.1-.2.3-.3.4,0,.5.2.7.6.7,0,.2,0,.3-.2.5-.1.1-.3.2-.6.2s-.5-.1-.6-.3-.2-.5,0-.8c0-.3.3-.6.6-.8.3-.2.7-.3,1.2-.3s1,.1,1.4.4c.4.3.6.6.6,1.1,0,.4-.2.8-.4,1,0,.1-.2.2-.4.4-.2.1-.3.2-.4.3-.1,0-.3.1-.5.2-.3.1-.4.2-.5.3-.1,0-.2.1-.4.3-.4.2-.5.5-.7.7h1.8c.4,0,.7,0,.9-.2.2-.1.4-.4.5-.7h.2Z"/>
            <path class="cls-5" d="M209.3,140.3c0,.3,0,.5.1.7,0,.2.3.2.6.2v.2h-2.7v-.2c.3,0,.5,0,.6-.2,0-.2.1-.4.1-.7v-2.6c0-.3,0-.5-.1-.7,0-.2-.3-.2-.6-.2v-.2l1.8-.8h.2v4.5Z"/>
            <path class="cls-5" d="M214.1,135.8v.5c0,.1-.2.3-.3.4,0,.1-.2.4-.4.7-.1.3-.3.6-.4.9-.1.3-.2.7-.3,1.1,0,.4-.1.8,0,1.2,0,.6-.2.9-.7.9s-.8-.3-.8-.8,0-.6.2-1c.1-.3.2-.6.4-.9.1-.3.3-.5.5-.8.2-.3.4-.5.5-.6.1-.1.3-.3.5-.5h-2.2c-.4,0-.7,0-.8.3h-.2v-1.4h3.9Z"/>
            <path class="cls-5" d="M216.4,138.5h3v.3h-3v-.3Z"/>
            <path class="cls-5" d="M225.6,139.5v2h-3.9c0-.5,0-.9.2-1.3.2-.4.5-.7.9-1.1.4-.3.7-.6.9-.9.2-.3.3-.5.4-.8.1-.4.1-.7,0-1,0-.3-.3-.4-.6-.4-.2,0-.4,0-.5.2-.1.1-.2.3-.3.4,0,.5.2.7.6.7,0,.2,0,.3-.2.5-.1.1-.3.2-.6.2s-.5-.1-.6-.3-.2-.5,0-.8c0-.3.3-.6.6-.8.3-.2.7-.3,1.2-.3s1,.1,1.4.4c.4.3.6.6.6,1.1,0,.4-.2.8-.4,1,0,.1-.2.2-.4.4s-.3.2-.4.3c-.1,0-.3.1-.5.2-.3.1-.4.2-.5.3-.1,0-.2.1-.4.3-.4.2-.5.5-.7.7h1.8c.4,0,.7,0,.9-.2.2-.1.4-.4.5-.7h.2Z"/>
            <path class="cls-5" d="M228.2,140.3c0,.3,0,.5.1.7,0,.2.3.2.6.2v.2h-2.7v-.2c.3,0,.5,0,.6-.2,0-.2.1-.4.1-.7v-2.6c0-.3,0-.5-.1-.7,0-.2-.3-.2-.6-.2v-.2l1.8-.8h.2v4.5Z"/>
            <path class="cls-5" d="M233,135.8v.5c0,.1-.2.3-.3.4,0,.1-.2.4-.4.7-.1.3-.3.6-.4.9-.1.3-.2.7-.3,1.1,0,.4-.1.8,0,1.2,0,.6-.2.9-.7.9s-.8-.3-.8-.8,0-.6.2-1c.1-.3.2-.6.4-.9.1-.3.3-.5.5-.8.2-.3.4-.5.5-.6.1-.1.3-.3.5-.5h-2.2c-.4,0-.7,0-.8.3h-.2v-1.4h3.9Z"/>
            <path class="cls-5" d="M237.4,135.8v.5c0,.1-.2.3-.3.4,0,.1-.2.4-.4.7-.1.3-.3.6-.4.9-.1.3-.2.7-.3,1.1,0,.4-.1.8,0,1.2,0,.6-.2.9-.7.9s-.8-.3-.8-.8,0-.6.2-1c.1-.3.2-.6.4-.9.1-.3.3-.5.5-.8.2-.3.4-.5.5-.6.1-.1.3-.3.5-.5h-2.2c-.4,0-.7,0-.8.3h-.2v-1.4h3.9Z"/>
          </g>
          <path class="cls-5" d="M174.6,139.3l-1.4-.6h0c-.1,0-.3,0-.4,0,0,0,0,0,0,0l-.7.6c-.5-.2-.9-.7-1.2-1.1l.6-.7s0,0,0,0c0-.1.1-.3,0-.4h0s-.6-1.4-.6-1.4c0-.2-.3-.3-.5-.3-.8.1-1.5.8-1.5,1.7,0,2.4,1.9,4.3,4.3,4.3.8,0,1.5-.6,1.7-1.5,0-.2,0-.4-.3-.5ZM173.3,140.8c-2.1,0-3.8-1.7-3.8-3.8,0-.6.4-1.1,1-1.2,0,0,0,0,0,0l.6,1.4-.6.7s0,0,0,0c0,.1-.1.3,0,.5.3.5.8,1.1,1.4,1.4.2,0,.3,0,.5,0,0,0,0,0,0,0l.7-.6,1.4.6h0c0,.6-.6,1-1.2,1Z"/>
        </g>
      </g>
      <g>
        <path class="cls-4" d="M66.5,73.9v-12.5c0-8.4-.9-13.4-5-15h21.5c15.8,0,24.1,9.5,24.1,21.2s-8.2,21.2-24.1,21.2h-21.5c4.1-1.5,5-6.5,5-15ZM83,88.1c7.5,0,11.6-7.7,11.6-20.5s-4.1-20.4-11.6-20.4-6.1,4.4-6.1,9.5v21.9c0,5,1.8,9.5,6.1,9.5Z"/>
        <path class="cls-4" d="M113.6,76.3c0-7-1.5-11.4-5.2-11.4,5.9-1.2,11.2-3.8,14.5-7.4v17.1c0,8.4.9,12.7,5.3,14.3h-19.8c4.2-1.6,5.3-6.7,5.3-12.6ZM117.6,45.1c4.1,0,6.4,2.2,6.4,5.5s-2.3,5.7-6.4,5.7-6.4-2.5-6.4-5.7,2.4-5.5,6.4-5.5Z"/>
        <path class="cls-4" d="M123.9,59.7h20.2c-1.7.7-2.5,2.1-2.5,4.2s.8,5.5,2.4,9.8l4.1,11.3,3-9.5c1.2-3.7,1.9-6.9,1.9-9.5s-1-5.3-2.8-6.3h13c-5.1,1.6-8.7,7.9-11.3,15.8l-4.4,13.3h-7.9l-5.5-15.1c-3-8.4-5.5-12.5-10.2-14Z"/>
        <path class="cls-4" d="M158.8,82.4c0-7.2,9-7.5,13.5-10.7-1.3.4-2.7.6-4.1.6-4.1,0-8-2-8-5.3,0-4.8,6.3-8.2,13.8-8.2,11.2,0,14,5.2,14,10.8v5.3c0,3,0,11.3,3.2,11.3s2-1,2.3-1.8c-.4,1.6-2.5,5.4-7.5,5.4s-7.5-4.4-7.7-9c-1.3,5.1-5.3,9-10.7,9s-9-3-9-7.5ZM170.7,71.4c3.4,0,6-3.6,6-7.3s-1.2-4.7-3.5-4.7c-3.6,0-5.9,4.2-5.9,7.7s1.1,4.3,3.5,4.3ZM172.8,85.9c2.7,0,5.6-3.5,5.6-11.6v-9.7c-1.7,6.5-9.6,7.8-9.6,15.3s1.9,6.1,3.9,6.1Z"/>
      </g>
      <g>
        <path class="cls-5" d="M52,105.4c1.4-.4,2.8-1,4.2-1.7,1.4-.7,2.7-1.6,3.9-2.5,1.3-.9,2.5-2,3.7-3.1s2.3-2.3,3.4-3.5,2.1-2.4,3-3.7c.9-1.2,1.8-2.5,2.6-3.7.4-.6.7-1.1,1.1-1.7.3-.6.7-1.1,1-1.7,0,0,0-.1.1-.2.1,0,.2,0,.3,0,0,0,0,.2,0,.3,0,.2-.1.4-.2.5,0,.2-.1.4-.2.5-.7,2.1-1.3,4.1-2.1,6.1s-1.4,4-2.1,6.1c-.2.7-.4,1.4-.7,2.1-.2.7-.4,1.4-.6,2.1,0,.2,0,.4-.1.7,0,.3-.1.6-.1.9,0,.3,0,.6,0,.9,0,.3,0,.5.2.6,0,.1.2.2.4.1.1,0,.3-.1.4-.2.3-.2.7-.4,1.1-.8.4-.3.7-.6,1-.9.6-.6,1.2-1.2,1.8-1.9.6-.6,1.2-1.3,1.7-1.9,1-1.1,1.9-2.3,2.9-3.5.9-1.2,1.8-2.4,2.7-3.7.6-.9,1.2-1.8,1.8-2.7.6-.9,1.1-1.9,1.6-2.8.1-.2.2-.5.4-.8.2-.3.3-.7.5-1,.2-.4.3-.8.4-1.2.1-.4.2-.8.3-1.2,0-.4,0-.7,0-1,0-.3-.1-.6-.3-.8h0c0,0-.1-.1-.1-.2s0-.1,0-.2c0,0,.1,0,.2,0,0,0,.1,0,.2,0,.1.1.3.3.3.4.2.4.3.8.2,1.3s-.2,1-.3,1.6c-.2.5-.4,1.1-.6,1.6-.2.5-.4.9-.6,1.3-.5.9-1,1.9-1.6,2.8-.6.9-1.2,1.8-1.8,2.7-.9,1.3-1.8,2.5-2.7,3.7-.9,1.2-1.9,2.4-2.9,3.6-.2.3-.5.6-.8.9s-.7.8-1.1,1.2c-.4.4-.8.8-1.2,1.3-.4.4-.8.8-1.2,1.2-.4.4-.8.7-1.2,1-.4.3-.7.5-.9.6-.2,0-.3,0-.5,0-.2,0-.3,0-.5-.2-.1-.1-.2-.3-.3-.5,0-.2,0-.4,0-.7s0-.5,0-.7c0-.2,0-.4,0-.6.1-.6.2-1.1.4-1.7.2-.6.3-1.1.5-1.7.3-1.1.7-2.1,1-3.2.4-1.1.7-2.1,1.1-3.2.4-1.1.8-2.2,1.2-3.3s.8-2.2,1.1-3.3c-.2.3-.4.7-.6,1-.2.3-.4.6-.7,1-.8,1.2-1.7,2.4-2.6,3.6-.9,1.2-1.9,2.4-3,3.6-1.1,1.2-2.2,2.3-3.4,3.5-1.2,1.1-2.4,2.1-3.7,3.1-1.3.9-2.6,1.8-3.9,2.5-1.4.7-2.7,1.3-4.2,1.7-.2,0-.3,0-.3-.2,0-.2,0-.3.2-.3Z"/>
        <path class="cls-5" d="M85.4,96.1c0,0-.2,0-.3,0-.1,0-.2,0-.3,0-.2,0-.4.1-.6.3-.2.1-.5.3-.7.6s-.5.5-.7.7-.5.5-.6.8c-.2.3-.3.5-.4.7-.1.2-.1.4,0,.6,0,0,0,0,0,0,0,0,.2,0,.3,0,.1,0,.2,0,.3-.1.3-.1.6-.3.9-.5s.5-.4.7-.6.4-.5.7-.7c.2-.2.4-.5.7-.7,0,0,.2-.1.3-.1.1,0,.2,0,.3.2v.2s0,0,0,0,0,0,0,0c0,.3,0,.6.1.8.1.3.3.5.6.6.3.2.5.3.9.3.3,0,.6,0,1-.1.3,0,.6-.2.9-.3.3-.1.6-.3.8-.4.5-.3.9-.6,1.4-1,.4-.4.8-.7,1.2-1.1.1-.1.2-.1.4,0,.1.1.1.2,0,.4-.4.4-.9.8-1.4,1.2s-1,.7-1.5,1c-.3.2-.6.3-.9.5-.3.1-.7.3-1,.3-.3,0-.7,0-1,0-.3,0-.7-.1-1-.3-.3-.2-.5-.4-.7-.7-.2-.3-.3-.6-.3-.9-.2.2-.4.5-.7.8-.3.3-.6.6-.9.9s-.7.5-1,.7c-.3.2-.6.2-.9.2-.3,0-.4-.2-.5-.4s0-.4,0-.6c0-.3.2-.6.4-.9.2-.3.5-.6.7-.9s.6-.6.9-.8c.3-.3.6-.5.9-.6.1,0,.2-.1.4-.2.2,0,.3-.1.5-.2.2,0,.4,0,.5,0,.2,0,.3,0,.4.2s.2.3.1.5c0,.2-.2.2-.3.2-.1,0-.2-.2-.2-.3Z"/>
        <path class="cls-5" d="M92.6,96.7c-.4.7-.6,1.2-.6,1.4,0,.3.2.4.5.4.3,0,.8,0,1.3-.3.5-.2,1.1-.4,1.7-.7s1.1-.5,1.6-.8c.5-.3.9-.5,1.2-.7,0,0,.1,0,.2,0,0,0,.1,0,.2.1,0,0,0,.1,0,.2s0,.1-.1.2c-.2.1-.6.3-1,.6-.5.2-.9.5-1.4.7s-1,.4-1.4.6c-.5.2-.8.3-1.1.4-.6.2-1.1.3-1.4.2-.3,0-.6-.3-.7-.5-.1-.3,0-.6,0-1,.1-.4.4-.9.7-1.3,0,0,.1,0,.2,0,0,0,.1,0,.2.1,0,0,0,0,0,.1,0,.1,0,.2-.1.2ZM92.6,95.6v-.2c.3-.1.4-.2.5,0,0,0,.1,0,.1.2,0,0,0,.1,0,.2h-.1c0,.3-.2.3-.4.2-.1,0-.2-.2-.1-.4Z"/>
        <path class="cls-5" d="M98.5,96.8c-.3.4-.5.8-.8,1.3s-.6,1-.8,1.5c-.2.5-.5,1-.6,1.5s-.3.9-.3,1.3c0,.8.4,1.3,1.2,1.3s.9-.1,1.4-.4c.6-.3,1.2-.6,1.8-1,.6-.4,1.2-.8,1.8-1.2.6-.4,1-.8,1.3-1,.6-.5,1.2-.9,1.7-1.4.6-.5,1.2-.9,1.8-1.4.2-.2.4-.3.7-.5s.5-.3.7-.5c0,0,0,0,0,0,0,0,0,0,0,0,.2,0,.3,0,.4.1,0,0,0,.1,0,.2s0,.1-.1.2c0,0,0,0-.1,0-.2.1-.4.3-.7.4-.2.2-.4.3-.6.5-.6.4-1.1.9-1.7,1.3-.5.4-1.1.9-1.7,1.3-.4.3-.8.7-1.4,1.1-.5.4-1.1.8-1.7,1.2s-1.2.7-1.7,1-1.1.5-1.5.6c-.3,0-.5,0-.8,0-.3,0-.5-.1-.8-.3-.4-.2-.6-.5-.6-.9,0-.4,0-.9,0-1.3.1-.5.2-.9.4-1.4.2-.4.4-.8.5-1.1.4-.9.9-1.7,1.5-2.5.6-.8,1.2-1.6,1.8-2.4.7-.9,1.4-1.8,2.2-2.6.8-.9,1.6-1.6,2.4-2.4.5-.4,1-.8,1.5-1.2.5-.4,1-.8,1.5-1.1.1,0,.3-.2.6-.4.2-.2.5-.3.8-.4s.5-.2.8-.3c.3,0,.5,0,.7,0,.2.1.4.3.3.6s0,.5-.1.7c-.1.3-.3.7-.6,1.1-.3.4-.6.8-.9,1.1s-.6.7-1,1.1c-.3.3-.6.6-.9.9-.4.4-.9.8-1.4,1.2-.5.4-1,.7-1.5,1-.9.6-1.8,1.2-2.8,1.7-1,.5-1.9,1-2.9,1.5,0,0,0,0,0,0ZM99.2,95.9c.8-.4,1.6-.9,2.4-1.3.8-.5,1.6-.9,2.3-1.4.5-.3,1-.7,1.4-1s.9-.7,1.3-1.1c.3-.2.5-.5.8-.8s.6-.6.9-1c.3-.3.6-.7.8-1,.2-.3.4-.7.6-1,0,0,0-.2.1-.4,0-.2,0-.3,0-.4,0,0,0,0-.1,0s-.1,0-.2,0-.1,0-.2,0c0,0-.1,0-.1,0-.4.1-.8.4-1.4.7-.5.3-1,.7-1.6,1.1s-1,.8-1.5,1.2c-.5.4-.9.8-1.2,1.1-.8.8-1.7,1.7-2.4,2.6-.8.9-1.5,1.8-2.2,2.8Z"/>
        <path class="cls-5" d="M108.9,96.1c0,.2.1.3.1.5,0,.2,0,.4,0,.6,0,0,.2,0,.3,0,1-.2,2-.4,3.1-.6,1-.2,2.1-.3,3.1-.4.2,0,.3,0,.3.2,0,.2,0,.3-.3.3-1,0-2,.2-3,.4s-2,.3-3,.6c0,0-.2,0-.2,0,0,0-.2,0-.2,0,0,.4-.1.8-.3,1.3s-.3.8-.5,1.1c-.2.4-.4.7-.6,1-.2.3-.5.5-.8.8-.2.1-.3.3-.6.4s-.4.3-.7.4-.5.2-.7.2-.5,0-.7,0c-.4,0-.6-.3-.7-.6-.1-.3-.1-.6,0-.9,0-.3.2-.5.3-.8.2-.3.3-.5.5-.7s.4-.5.6-.7c.2-.2.4-.4.7-.5.4-.3.9-.6,1.4-.8.5-.2,1-.4,1.5-.5,0-.2,0-.4,0-.5s0-.3-.1-.5c0-.2,0-.3.2-.3,0,0,.1,0,.2,0,0,0,.1,0,.1.2ZM108.5,97.9c-.3.1-.7.2-1,.4s-.7.3-1,.5c-.4.3-.9.6-1.3,1-.5.4-.8.9-1,1.3,0,.1-.1.3-.1.4,0,.1,0,.3,0,.4s0,.2.1.3c0,0,.2.1.4.2.2,0,.4,0,.6,0,.2,0,.4-.1.6-.2.2,0,.4-.2.5-.3.2-.1.3-.2.5-.3.3-.3.6-.5.8-.8.2-.3.4-.6.6-1,.1-.2.2-.5.3-.8,0-.3.2-.6.2-.9Z"/>
        <path class="cls-5" d="M124.3,96.1c0,0-.2,0-.3,0-.1,0-.2,0-.3,0-.2,0-.4.1-.6.3-.2.1-.5.3-.7.6s-.5.5-.7.7-.5.5-.6.8c-.2.3-.3.5-.4.7-.1.2-.1.4,0,.6,0,0,0,0,0,0,0,0,.2,0,.3,0,.1,0,.2,0,.3-.1.3-.1.6-.3.9-.5s.5-.4.7-.6.4-.5.7-.7c.2-.2.4-.5.7-.7,0,0,.2-.1.3-.1.1,0,.2,0,.3.2v.2s0,0,0,0,0,0,0,0c0,.3,0,.6.1.8.1.3.3.5.6.6.3.2.5.3.9.3.3,0,.6,0,1-.1.3,0,.6-.2.9-.3.3-.1.6-.3.8-.4.5-.3.9-.6,1.4-1,.4-.4.8-.7,1.2-1.1s.2-.1.4,0c.1.1.1.2,0,.4-.4.4-.9.8-1.4,1.2s-1,.7-1.5,1c-.3.2-.6.3-.9.5-.3.1-.7.3-1,.3-.3,0-.7,0-1,0-.3,0-.7-.1-1-.3-.3-.2-.5-.4-.7-.7-.2-.3-.3-.6-.3-.9-.2.2-.4.5-.7.8-.3.3-.6.6-.9.9s-.7.5-1,.7c-.3.2-.6.2-.9.2-.3,0-.4-.2-.5-.4s0-.4,0-.6c0-.3.2-.6.4-.9.2-.3.5-.6.7-.9s.6-.6.9-.8c.3-.3.6-.5.9-.6.1,0,.2-.1.4-.2.2,0,.3-.1.5-.2.2,0,.4,0,.5,0,.2,0,.3,0,.4.2s.2.3.1.5c0,.2-.2.2-.3.2-.1,0-.2-.2-.2-.3Z"/>
        <path class="cls-5" d="M131.7,96.5c0,0,0,.1,0,.1,0,0,0,0,0,.1,0,.1-.1.3-.2.4,0,.1-.2.3-.3.4-.2.3-.4.6-.6,1-.2.3-.4.7-.6,1,0,0,0,.2-.1.3,0,.1-.1.2-.1.3.4-.2.7-.4,1.1-.6.4-.2.7-.4,1.1-.6.4-.2.8-.5,1.3-.7.4-.2.9-.5,1.3-.7,0,0,.2,0,.3-.2s.3-.1.4-.2.3,0,.4-.1.2,0,.4,0c.2,0,.4.2.5.3,0,.2,0,.4,0,.6,0,.2,0,.3-.1.6,0,.2,0,.4,0,.5,0,.1,0,.2,0,.2s.1,0,.2,0c.2,0,.4,0,.7,0,.3,0,.5,0,.7-.2.3,0,.6-.2.9-.3.3-.1.6-.2.9-.3.8-.3,1.7-.6,2.5-.9.8-.3,1.6-.6,2.4-1,.2,0,.4-.2.6-.3.2,0,.4-.2.6-.3,0,0,.1,0,.2,0,0,0,.1,0,.1.1,0,.1,0,.3-.1.4-.6.3-1.1.5-1.7.7-.6.2-1.1.5-1.7.7-.6.3-1.3.5-1.9.7-.6.2-1.3.5-1.9.7-.1,0-.3.1-.5.2-.2,0-.3.1-.5.1-.2,0-.5.1-.8.1-.3,0-.6,0-.8,0-.3-.1-.4-.3-.5-.5,0-.2,0-.4,0-.7,0-.1,0-.3,0-.4,0-.1,0-.3,0-.4,0-.1,0-.2-.1-.2,0,0-.2,0-.3,0-.1,0-.2,0-.3,0s-.2,0-.4.1c-.1,0-.2,0-.3.1-.4.2-.8.4-1.3.6-.4.2-.8.5-1.2.7-.4.2-.7.4-1.1.7s-.7.4-1.1.7c-.1,0-.3.1-.4.1s-.3,0-.4-.2c0,0,0-.2,0-.3,0-.1,0-.2,0-.3,0-.1,0-.2.1-.3,0-.1,0-.2.1-.3.2-.4.4-.7.6-1.1.2-.4.5-.7.7-1.1,0-.1.1-.2.2-.4s.2-.2.2-.4c0-.1.1-.2.3-.2.2,0,.3.1.2.3Z"/>
        <path class="cls-5" d="M148.1,97.9s0,.1,0,.2c0,.2,0,.4,0,.5,0,.2.1.3.3.5.2.2.3.3.6.4.2,0,.4.1.7.1.2,0,.5,0,.7,0s.4,0,.6-.2c.4-.1.9-.3,1.3-.6.4-.2.9-.5,1.3-.8.4-.3.8-.6,1.2-.9.4-.3.7-.6,1.1-.9,0,0,.1,0,.2,0,0,0,.1,0,.2,0,0,0,0,.1,0,.2s0,.1-.1.2c0,0,0,0-.1.1s0,0-.1.1c-.4.3-.8.7-1.3,1.1-.5.4-1,.7-1.6,1.1-.5.3-1.1.6-1.7.8s-1.1.3-1.7.3-1.1-.1-1.5-.4-.6-.7-.7-1.3c-.4.3-.8.6-1.2.8-.4.3-.8.5-1.2.7-.1,0-.3.1-.4.2-.2,0-.3.2-.5.2s-.4.1-.5.2c-.2,0-.3,0-.5,0-.2,0-.3-.2-.4-.4s0-.4,0-.6c0-.2,0-.4.2-.7.1-.2.2-.5.4-.7.1-.2.3-.4.5-.6.2-.2.3-.4.5-.5.6-.5,1.2-1,2-1.3.7-.3,1.5-.4,2.3-.3,0,0,0,0,0,0s0,0,0,0c.4-.7.9-1.3,1.4-2,.5-.6,1-1.3,1.6-1.8.3-.3.6-.6,1-1.1.4-.4.9-.9,1.4-1.3s.9-.8,1.4-1.1c.5-.3.9-.5,1.2-.6.2,0,.4,0,.6,0,.2,0,.3.2.3.5,0,.2,0,.4-.1.7-.1.2-.2.5-.4.7-.2.2-.3.5-.5.7s-.3.4-.5.5c-.5.5-.9,1.1-1.4,1.6-.5.5-1,1-1.5,1.5-.8.7-1.6,1.4-2.4,2.1-.8.7-1.7,1.4-2.5,2,0,0,0,0,0,0s0,0,0,0ZM148.3,96c-.7,0-1.3,0-1.9.3-.6.3-1.1.6-1.6,1.1-.3.3-.5.6-.8,1-.3.4-.5.8-.6,1.1,0,0,0,.2,0,.3s0,.2.2.2c.1,0,.3,0,.6-.1.2-.1.5-.2.8-.4.3-.1.5-.3.8-.4.2-.1.4-.3.5-.3.2-.2.5-.3.7-.5.2-.2.5-.4.7-.5,0-.3.2-.5.3-.8.1-.3.3-.5.4-.8ZM148.9,96.1s0,0,0,0c0,.1-.2.3-.3.5,0,.2-.2.3-.2.5.3-.2.5-.4.8-.6.3-.2.5-.4.8-.6.8-.6,1.5-1.3,2.3-2,.8-.7,1.5-1.4,2.2-2.1.3-.3.7-.7,1-1.1.3-.4.7-.8.9-1.2,0,0,0-.1.2-.2,0-.1.1-.2.2-.3,0-.1.1-.2.2-.4,0-.1,0-.2,0-.3,0,0,0,0-.1,0,0,0-.1,0-.2,0,0,0-.2,0-.3,0,0,0-.1,0-.2,0-.3.2-.7.4-1.1.7-.4.3-.8.6-1.2,1-.4.4-.7.7-1.1,1.1-.4.4-.7.7-.9,1-.5.6-1,1.2-1.5,1.8-.5.6-.9,1.2-1.4,1.9.1,0,.2.2.1.3,0,.2-.2.2-.3.2Z"/>
        <path class="cls-5" d="M186.1,87.4c.2-.2.4-.4.4-.7,0-.2.1-.5,0-.7,0-.2-.1-.5-.3-.7s-.3-.4-.5-.6c-.3-.3-.6-.5-1-.6-.4-.2-.7-.3-1.1-.4-.4,0-.8-.1-1.2-.1s-.8,0-1.2,0c-.7,0-1.6.2-2.5.4s-1.9.5-3,.9c-1,.4-2.1.8-3.1,1.4s-2.1,1.1-3,1.7c-1,.6-1.9,1.3-2.7,2.1-.8.8-1.5,1.6-2,2.4-.5.8-.9,1.7-1.1,2.7-.2.9-.2,1.9.1,2.9.1.5.3.9.6,1.2.3.3.6.5.9.7.4.1.7.2,1.2.2.4,0,.8,0,1.3,0,.5,0,1.1-.3,1.8-.5.7-.3,1.4-.5,2.2-.8.8-.3,1.5-.5,2.3-.8.8-.2,1.5-.4,2.1-.4.7,0,1.2,0,1.7.2s.8.6,1,1.2c1.1-.7,2.3-1.4,3.6-1.9.3-.1.6-.3.9-.4.3-.1.6-.3.9-.4h0c.2-.1.3,0,.4.1,0,0,0,.1,0,.2,0,0,0,.1-.1.1-.3.1-.6.3-.9.4-.3.1-.6.3-.9.4-1.3.6-2.6,1.3-3.8,2,0,.1,0,.3,0,.4,0,.1,0,.3,0,.4,0,.4-.2.7-.4,1.1-.2.4-.4.7-.7,1-.3.3-.5.6-.8.9-.3.3-.6.5-.9.8-.2.1-.4.3-.6.4-.2.1-.5.3-.7.4s-.5.2-.8.3c-.3,0-.5.1-.7.2-.2,0-.4,0-.5,0-.2,0-.3-.2-.3-.4,0-.2,0-.3,0-.5,0-.2.2-.4.4-.5s.3-.3.5-.5c.2-.2.3-.3.4-.4.8-.7,1.5-1.4,2.3-2,.8-.6,1.6-1.2,2.5-1.7,0-.6-.4-.9-.8-1.1-.5-.2-1.1-.2-1.8-.1-.7,0-1.5.3-2.3.5-.8.3-1.7.5-2.5.8-.8.3-1.6.6-2.2.8-.7.2-1.2.4-1.6.4-.9,0-1.7,0-2.4-.4s-1.2-1-1.5-1.9c-.3-1-.4-2.1-.2-3,.2-1,.5-1.9,1.1-2.8.5-.9,1.2-1.7,2.1-2.5.8-.8,1.7-1.5,2.7-2.2,1-.7,2-1.3,3.2-1.8,1.1-.5,2.2-1,3.3-1.4s2.1-.7,3.1-.9,1.9-.4,2.7-.4c.4,0,.8,0,1.3,0s.9,0,1.3.2c.4,0,.8.2,1.2.4.4.2.7.4,1,.7.3.2.5.5.6.8.2.3.2.6.3.9,0,.3,0,.6-.1.9-.1.3-.3.6-.6.8,0,0-.1,0-.2,0s-.1,0-.2-.1c0,0,0-.1,0-.2s0-.1,0-.2ZM178.7,99.9c-.7.5-1.5,1-2.2,1.6-.7.5-1.4,1.1-2.1,1.8-.1.1-.3.3-.5.4-.2.1-.3.3-.5.5,0,0,0,0-.1.1,0,0-.1.1-.2.2,0,0,0,.1-.1.2,0,0,0,.1,0,.2,0,0,0,0,.1,0s.1,0,.2,0c.2,0,.4,0,.6-.1s.4-.2.7-.3c.2,0,.4-.2.6-.3.2-.1.4-.2.5-.3.5-.3,1-.8,1.5-1.3.5-.5.8-1.1,1.1-1.7.1-.3.2-.6.3-.9Z"/>
        <path class="cls-5" d="M185.1,96.4c0,.1-.2.3-.3.5-.1.2-.3.5-.5.8.5-.4,1-.8,1.5-1.2.5-.4,1-.7,1.4-.9.4-.2.8-.4,1.1-.4.3,0,.5,0,.6.4s0,.5-.2.9c-.2.3-.5.7-.9,1.1-.3.4-.7.7-1,1-.4.3-.6.6-.8.8.2,0,.5,0,.9-.2.4-.1.8-.3,1.2-.5s.9-.4,1.3-.7c.4-.2.9-.5,1.3-.7.4-.2.8-.5,1.1-.7s.6-.4.8-.5c0,0,.1,0,.2,0,0,0,.1,0,.2.1.1.1,0,.3,0,.4-.2.2-.5.4-.9.6-.4.2-.8.5-1.2.8s-.9.5-1.4.8c-.5.3-1,.5-1.4.7-.5.2-.9.3-1.3.5-.4.1-.7.2-.9.1-.3,0-.4-.1-.4-.3,0-.2.1-.4.3-.6.2-.2.4-.5.8-.8s.6-.6.9-.9c.3-.3.6-.6.8-.8s.3-.5.4-.7c0,0,0,0,0,0s0,0,0,0c-.3,0-.6.2-.9.4s-.7.4-1.1.7c-.4.3-.8.6-1.3,1-.4.4-.9.8-1.3,1.2-.3.5-.6,1-1,1.6-.3.6-.7,1.1-1,1.7-.3.5-.7,1.1-1,1.5-.3.5-.6.9-.9,1.3-.3.4-.5.6-.8.8-.2.2-.4.3-.5.2-.2,0-.3-.2-.3-.5,0-.3.2-.6.4-1.1.2-.4.5-.9.8-1.3s.6-.9.9-1.3.6-.7.8-1c.2-.3.4-.5.4-.5,0,0,.2-.2.5-.5.3-.3.6-.6,1-1,.4-.7.7-1.3,1.1-1.8s.5-.9.7-1.1c0-.2.2-.2.4,0,.1,0,.2.2,0,.4ZM181.7,101.1c-.7.8-1.3,1.6-1.9,2.4s-.9,1.5-1.1,2c.2-.2.3-.4.6-.7s.5-.7.7-1,.5-.8.8-1.3c.3-.4.6-.9.9-1.4Z"/>
        <path class="cls-5" d="M194.2,96.1c0,0-.2,0-.3,0s-.2,0-.3,0c-.2,0-.4.1-.6.3-.2.1-.5.3-.7.6s-.5.5-.7.7c-.2.3-.5.5-.6.8s-.3.5-.4.7-.1.4,0,.6c0,0,0,0,0,0,0,0,.2,0,.3,0s.2,0,.3-.1c.3-.1.6-.3.9-.5s.5-.4.7-.6.4-.5.7-.7c.2-.2.4-.5.7-.7,0,0,.2-.1.3-.1.1,0,.2,0,.3.2v.2s0,0,0,0,0,0,0,0c0,.3,0,.6.1.8.1.3.3.5.6.6.3.2.5.3.9.3s.6,0,1-.1.6-.2.9-.3c.3-.1.6-.3.8-.4.5-.3.9-.6,1.4-1,.4-.4.8-.7,1.2-1.1s.2-.1.4,0c.1.1.1.2,0,.4-.4.4-.9.8-1.4,1.2s-1,.7-1.5,1c-.3.2-.6.3-.9.5-.3.1-.7.3-1,.3-.3,0-.7,0-1,0-.3,0-.7-.1-1-.3-.3-.2-.5-.4-.7-.7-.2-.3-.3-.6-.3-.9-.2.2-.4.5-.7.8s-.6.6-.9.9-.7.5-1,.7-.6.2-.9.2c-.3,0-.4-.2-.5-.4,0-.2,0-.4,0-.6,0-.3.2-.6.4-.9.2-.3.5-.6.7-.9.3-.3.6-.6.9-.8.3-.3.6-.5.9-.6.1,0,.2-.1.4-.2.2,0,.3-.1.5-.2s.4,0,.5,0,.3,0,.4.2.2.3.1.5c0,.2-.2.2-.3.2-.1,0-.2-.2-.2-.3Z"/>
      </g>
      <rect class="cls-3" x="285.3" y="-5.7" width="266.5" height="167.2"/>
      <g>
        <g>
          <path class="cls-9" d="M314,57.9c0,.3,0,.6.1.7,0,.2.3.2.6.2v.2h-2.9v-.2c.3,0,.5,0,.6-.2,0-.2.1-.4.1-.7v-2.7c0-.3,0-.5-.1-.7,0-.2-.3-.2-.6-.2v-.2l1.9-.8h.2v4.8Z"/>
          <path class="cls-9" d="M317.3,54.1c0,.3,0,.5-.3.7-.2.2-.4.3-.6.3s-.5,0-.6-.3c-.2-.2-.3-.4-.3-.7s0-.5.3-.7.4-.3.6-.3.5,0,.6.3.3.4.3.7ZM318.5,53.2h.2l-2.6,4.2h-.2l2.6-4.2ZM316.5,54.9c.2,0,.3-.4.2-.9,0-.3,0-.4-.2-.6,0-.1-.2-.2-.3-.2,0,0-.2.1-.2.3s0,.4,0,.6c0,.5.2.8.4.7ZM318.8,57.1c-.2.2-.4.3-.6.3s-.5,0-.6-.3-.3-.4-.3-.7,0-.5.3-.7.4-.3.6-.3.5,0,.6.3c.2.2.3.4.3.7s0,.5-.3.7ZM318.5,56.4c0-.5-.2-.8-.4-.8-.2,0-.3.4-.2.9,0,.5.2.8.4.7.2,0,.3-.4.2-.9Z"/>
        </g>
        <path class="cls-6" d="M314.6,66.5c-5.8,0-10.4-4.7-10.4-10.4s4.7-10.4,10.4-10.4,10.4,4.7,10.4,10.4-4.7,10.4-10.4,10.4ZM314.6,45.9c-5.6,0-10.2,4.6-10.2,10.2s4.6,10.2,10.2,10.2,10.2-4.6,10.2-10.2-4.6-10.2-10.2-10.2Z"/>
      </g>
      <g>
        <g>
          <path class="cls-9" d="M339.5,55.5c.7,0,1.2.2,1.5.5.4.3.6.8.5,1.4,0,.6-.3,1-.7,1.4-.5.3-1,.5-1.6.5s-.9-.1-1.3-.3c-.4-.2-.7-.5-.8-.9,0-.3,0-.6.1-.9.2-.2.4-.3.7-.3s.5,0,.6.2c.1.2.2.3.2.5-.4,0-.7.2-.6.7,0,.2.1.3.3.5.2.1.4.2.6.1.7,0,1-.6,1-1.6,0-.3,0-.6-.3-.9-.2-.3-.6-.5-1.1-.5v-.2l1.3-1.4h-1.6c-.5,0-.7,0-.8.4h-.2v-1.5h3.9v.5l-1.8,1.9Z"/>
          <path class="cls-9" d="M344.2,53.7c0,.3,0,.5-.3.7-.2.2-.4.3-.6.3s-.5,0-.6-.3c-.2-.2-.3-.4-.3-.7s0-.5.3-.7.4-.3.6-.3.5,0,.6.3.3.4.3.7ZM345.4,52.7h.2l-2.6,4.2h-.2l2.6-4.2ZM343.4,54.5c.2,0,.3-.4.2-.9,0-.3,0-.4-.2-.6,0-.1-.2-.2-.3-.2,0,0-.2.1-.2.3s0,.4,0,.6c0,.5.2.8.4.7ZM345.8,56.7c-.2.2-.4.3-.6.3s-.5,0-.6-.3-.3-.4-.3-.7,0-.5.3-.7.4-.3.6-.3.5,0,.6.3c.2.2.3.4.3.7s0,.5-.3.7ZM345.5,55.9c0-.5-.2-.8-.4-.8-.2,0-.3.4-.2.9,0,.5.2.8.4.7.2,0,.3-.4.2-.9Z"/>
        </g>
        <path class="cls-6" d="M340.6,66.5c-5.8,0-10.4-4.7-10.4-10.4s4.7-10.4,10.4-10.4,10.4,4.7,10.4,10.4-4.7,10.4-10.4,10.4ZM340.6,45.9c-5.6,0-10.2,4.6-10.2,10.2s4.6,10.2,10.2,10.2,10.2-4.6,10.2-10.2-4.6-10.2-10.2-10.2Z"/>
      </g>
      <g>
        <g>
          <path class="cls-9" d="M364.3,55.4c1.1-.4,2.1-.4,2.7,0,.7.4,1,1,.9,1.9,0,.6-.3,1-.8,1.4-.4.3-1,.5-1.5.5s-.9-.1-1.3-.3c-.4-.2-.7-.5-.8-.9,0-.3,0-.6,0-.9.2-.2.4-.3.7-.3s.5,0,.6.2c.1.2.2.3.2.5-.2,0-.4,0-.5.2-.1.1-.2.3-.1.6,0,.2.1.3.3.5.2.1.4.2.6.1.7,0,1-.6,1-1.6,0,0,0-.2,0-.3,0-.2-.1-.5-.2-.7-.1-.2-.4-.4-.7-.5-.3-.1-.8-.1-1.3,0h-.3l.2-2.7h2.4c.4,0,.7-.1.8-.4h.2v1.5h-3.2v1.1Z"/>
          <path class="cls-9" d="M370.5,53.7c0,.3,0,.5-.3.7-.2.2-.4.3-.6.3s-.5,0-.6-.3c-.2-.2-.3-.4-.3-.7s0-.5.3-.7.4-.3.6-.3.5,0,.6.3.3.4.3.7ZM371.7,52.7h.2l-2.6,4.2h-.2l2.6-4.2ZM369.7,54.5c.2,0,.3-.4.2-.9,0-.3,0-.4-.2-.6,0-.1-.2-.2-.3-.2,0,0-.2.1-.2.3s0,.4,0,.6c0,.5.2.8.4.7ZM372.1,56.7c-.2.2-.4.3-.6.3s-.5,0-.6-.3-.3-.4-.3-.7,0-.5.3-.7.4-.3.6-.3.5,0,.6.3c.2.2.3.4.3.7s0,.5-.3.7ZM371.7,55.9c0-.5-.2-.8-.4-.8-.2,0-.3.4-.2.9,0,.5.2.8.4.7.2,0,.3-.4.2-.9Z"/>
        </g>
        <path class="cls-6" d="M366.6,66.5c-5.8,0-10.4-4.7-10.4-10.4s4.7-10.4,10.4-10.4,10.4,4.7,10.4,10.4-4.7,10.4-10.4,10.4ZM366.6,45.9c-5.6,0-10.2,4.6-10.2,10.2s4.6,10.2,10.2,10.2,10.2-4.6,10.2-10.2-4.6-10.2-10.2-10.2Z"/>
      </g>
      <g>
        <g>
          <path class="cls-9" d="M393,53.1v.5c0,.1-.2.3-.3.5,0,.2-.2.4-.4.7-.2.3-.3.6-.4,1s-.2.7-.3,1.1c0,.4-.1.9,0,1.3,0,.6-.2,1-.7,1s-.8-.3-.8-.9,0-.7.2-1c.1-.4.2-.7.4-.9.1-.3.3-.5.6-.8s.4-.5.6-.7c.1-.2.3-.3.5-.5h-2.3c-.5,0-.7,0-.8.4h-.2v-1.5h4.2Z"/>
          <path class="cls-9" d="M395.9,53.7c0,.3,0,.5-.3.7-.2.2-.4.3-.6.3s-.5,0-.6-.3c-.2-.2-.3-.4-.3-.7s0-.5.3-.7.4-.3.6-.3.5,0,.6.3.3.4.3.7ZM397.1,52.7h.2l-2.6,4.2h-.2l2.6-4.2ZM395.1,54.5c.2,0,.3-.4.2-.9,0-.3,0-.4-.2-.6,0-.1-.2-.2-.3-.2,0,0-.2.1-.2.3s0,.4,0,.6c0,.5.2.8.4.7ZM397.4,56.7c-.2.2-.4.3-.6.3s-.5,0-.6-.3-.3-.4-.3-.7,0-.5.3-.7.4-.3.6-.3.5,0,.6.3c.2.2.3.4.3.7s0,.5-.3.7ZM397.1,55.9c0-.5-.2-.8-.4-.8-.2,0-.3.4-.2.9,0,.5.2.8.4.7.2,0,.3-.4.2-.9Z"/>
        </g>
        <path class="cls-6" d="M392.6,66.5c-5.8,0-10.4-4.7-10.4-10.4s4.7-10.4,10.4-10.4,10.4,4.7,10.4,10.4-4.7,10.4-10.4,10.4ZM392.6,45.9c-5.6,0-10.2,4.6-10.2,10.2s4.6,10.2,10.2,10.2,10.2-4.6,10.2-10.2-4.6-10.2-10.2-10.2Z"/>
      </g>
      <g>
        <g>
          <g>
            <path class="cls-4" d="M415.8,57.9c0,.3,0,.6.1.7,0,.2.3.2.6.2v.2h-2.9v-.2c.3,0,.5,0,.6-.2,0-.2.1-.4.1-.7v-2.7c0-.3,0-.5-.1-.7,0-.2-.3-.2-.6-.2v-.2l1.9-.8h.2v4.8Z"/>
            <path class="cls-4" d="M419.1,53.1c.7,0,1.3.3,1.8.8.4.6.7,1.3.7,2.2s-.2,1.7-.7,2.2c-.4.6-1,.8-1.8.8s-1.3-.3-1.8-.8c-.4-.6-.7-1.3-.7-2.2s.2-1.7.7-2.2c.4-.6,1-.8,1.8-.8ZM420,57.9c.1-.6.1-1.2,0-2-.1-.8-.3-1.4-.5-1.9-.2-.5-.5-.7-.8-.6-.3,0-.5.4-.6.9-.1.6-.1,1.2,0,2,.1.8.3,1.4.5,1.9.2.4.5.6.8.6.3,0,.5-.3.6-.9Z"/>
          </g>
          <path class="cls-4" d="M424,53.7c0,.3,0,.5-.3.7-.2.2-.4.3-.6.3s-.5,0-.6-.3c-.2-.2-.3-.4-.3-.7s0-.5.3-.7c.2-.2.4-.3.6-.3s.5,0,.6.3c.2.2.3.4.3.7ZM425.2,52.7h.2l-2.6,4.2h-.2l2.6-4.2ZM423.2,54.5c.2,0,.3-.4.2-.9,0-.3,0-.4-.2-.6,0-.1-.2-.2-.3-.2,0,0-.2.1-.2.3,0,.2,0,.4,0,.6,0,.5.2.8.4.7ZM425.6,56.7c-.2.2-.4.3-.6.3s-.5,0-.6-.3c-.2-.2-.3-.4-.3-.7s0-.5.3-.7c.2-.2.4-.3.6-.3s.5,0,.6.3c.2.2.3.4.3.7s0,.5-.3.7ZM425.2,55.9c0-.5-.2-.8-.4-.8-.2,0-.3.4-.2.9,0,.5.2.8.4.7.2,0,.3-.4.2-.9Z"/>
        </g>
        <path class="cls-6" d="M418.6,66.5c-5.8,0-10.4-4.7-10.4-10.4s4.7-10.4,10.4-10.4,10.4,4.7,10.4,10.4-4.7,10.4-10.4,10.4ZM418.6,45.9c-5.6,0-10.2,4.6-10.2,10.2s4.6,10.2,10.2,10.2,10.2-4.6,10.2-10.2-4.6-10.2-10.2-10.2Z"/>
      </g>
      <g>
        <path class="cls-4" d="M398.5,35c0,.6-.3,1-.8,1.3-.5.3-1.3.4-2.3.4h-3v-.2c.3,0,.5,0,.7-.3.1-.2.2-.4.2-.8v-3.7c0-.3,0-.6-.2-.8-.1-.2-.3-.3-.7-.3v-.3h2.6c2,0,3,.5,3,1.6s-.4,1.1-1.2,1.3c1.1.2,1.7.8,1.7,1.6ZM394.8,30.8v2.4h.4c.9,0,1.3-.4,1.3-1.2s0-.6-.3-.9-.5-.3-.9-.3h-.5ZM395.4,36.4c.5,0,.9-.1,1.2-.4.3-.3.4-.6.4-1s-.1-.8-.4-1c-.3-.3-.6-.4-1.2-.4h-.6v2.8h.6Z"/>
        <path class="cls-4" d="M403.6,35.5c-.2.4-.4.7-.8,1-.3.3-.8.4-1.3.4s-1.2-.2-1.6-.6-.7-.8-.7-1.4c0-.7.1-1.3.6-1.7.5-.4,1-.6,1.7-.6s1.1.2,1.5.5.5.8.5,1.4l-2.8.5c0,.4.3.6.6.8.3.2.7.2,1.1.2.4,0,.7-.2,1-.5.1,0,.2.1.2.1ZM400.8,33.4c-.1.3-.2.7-.1,1.1l1.5-.3c0-.9-.2-1.4-.8-1.4-.3,0-.5.2-.6.5Z"/>
        <path class="cls-4" d="M409.2,36.5c-.2.2-.5.4-.9.3-.3,0-.5,0-.8-.1-.2-.1-.4-.3-.4-.4-.3.4-.7.6-1.3.6s-.8,0-1-.2c-.3-.1-.5-.4-.5-.7,0-.4,0-.7.2-.9.2-.3.6-.5,1.1-.6.1,0,.3,0,.5,0,.2,0,.3,0,.4,0s.2,0,.3,0c.2,0,.2-.2.2-.4-.1-.6-.3-.9-.7-.9-.3,0-.5,0-.6.3-.1.2,0,.4.1.5-.1.2-.2.3-.4.3-.2,0-.3,0-.4,0-.3-.1-.3-.4-.2-.7,0-.3.3-.5.6-.6.3-.1.6-.2.9-.2.7,0,1.2.1,1.6.4.3.3.5.7.6,1.2l.2,1.3c0,.5.1.7.2.8.1.1.3.1.5,0v.2ZM407,35.4c0-.4,0-.7,0-.9,0,0,0,.1-.2.2,0,0-.2,0-.5.2-.4.1-.7.5-.6.9,0,.2.1.4.3.5.2.1.3.1.5,0,.4,0,.6-.4.5-.9Z"/>
        <path class="cls-4" d="M414.8,36.2c-.2.4-.6.7-1,.7-.6,0-1-.2-1.1-.7-.3.5-.8.7-1.4.7-.5,0-.9-.1-1.1-.4-.3-.3-.4-.7-.4-1.2v-.7c0-.2,0-.3,0-.3,0,0,0-.2,0-.3,0-.1,0-.2,0-.2,0,0-.3-.2-.5-.2v-.2c.3,0,.6,0,1-.2.4-.1.7-.3.9-.5h.2v2.5c0,.7.3,1,.8,1,.5,0,.7-.4.7-1.1v-.5c0-.2,0-.3,0-.3,0,0,0-.2,0-.3,0-.1,0-.2,0-.2,0,0-.3-.2-.5-.2v-.2c.3,0,.6,0,1-.2.4-.1.7-.3.9-.5h.2v2.9c0,.5,0,.7.2.8.1,0,.3,0,.4-.2h.2Z"/>
        <path class="cls-4" d="M418.1,35.9c-.3.7-.7,1-1.2,1s-.7-.1-.9-.4-.4-.6-.4-1.1v-2.4h-.7v-.4c.5,0,.9-.2,1.2-.4.3-.3.6-.6.7-1.1h.3v1.5h1v.4h-1v2.4c0,.4.1.5.4.6.2,0,.4,0,.6-.3h.2Z"/>
        <path class="cls-4" d="M421.7,32.7h1.6v.2c-.4,0-.6.2-.8.6l-1.3,3.2c0,.2-.1.4-.2.4,0,0,0,.2-.2.4,0,.2-.2.4-.2.5,0,.1-.1.2-.2.4s-.2.3-.3.3c-.2.1-.5.3-.7.3s-.7-.2-.8-.5c0-.2,0-.5,0-.7.1-.2.3-.3.4-.4.2.3.4.4.8.4.4,0,.8-.4,1-1.1l-1.8-3.5c-.2-.3-.4-.4-.7-.4v-.2h2.6v.2c-.4,0-.5.1-.3.6l.8,1.7.7-1.7c0-.2.1-.3,0-.4,0-.2-.2-.2-.5-.2v-.2Z"/>
        <path class="cls-4" d="M429.9,35.5c-.2.4-.4.7-.8,1-.3.3-.8.4-1.3.4s-1.2-.2-1.6-.5c-.4-.4-.7-.8-.7-1.4,0-.7.1-1.3.6-1.7.5-.4,1-.6,1.7-.6s1.1.1,1.3.3c.3.2.5.4.5.7,0,.4,0,.7-.4.9-.2,0-.4.1-.6,0-.2,0-.4-.2-.6-.4.2-.1.2-.3.3-.5,0-.2,0-.4-.2-.5-.1-.1-.3-.2-.6-.2-.2,0-.4.2-.6.4-.1.3-.2.6-.2,1,0,1,.5,1.5,1.4,1.6.6,0,1.1-.1,1.5-.5,0,0,.1.1.1.1Z"/>
        <path class="cls-4" d="M432.3,35.5c0,.3,0,.6.1.8.1.2.3.3.6.3v.2h-3v-.2c.3,0,.5,0,.6-.3.1-.2.2-.4.2-.8v-3c0-.3,0-.6-.2-.8-.1-.2-.3-.3-.6-.3v-.3c.3,0,.6,0,1-.2.4-.1.7-.3,1-.5h.2v5Z"/>
        <path class="cls-4" d="M438.9,36.2c-.2.4-.6.7-1,.7-.6,0-1-.2-1.1-.7-.3.5-.8.7-1.4.7-.5,0-.9-.1-1.1-.4-.3-.3-.4-.7-.4-1.2v-.7c0-.2,0-.3,0-.3,0,0,0-.2,0-.3,0-.1,0-.2,0-.2,0,0-.3-.2-.5-.2v-.2c.3,0,.6,0,1-.2.4-.1.7-.3.9-.5h.2v2.5c0,.7.3,1,.8,1,.5,0,.7-.4.7-1.1v-.5c0-.2,0-.3,0-.3,0,0,0-.2,0-.3,0-.1,0-.2,0-.2,0,0-.3-.2-.5-.2v-.2c.3,0,.6,0,1-.2.4-.1.7-.3.9-.5h.2v2.9c0,.5,0,.7.2.8.1,0,.3,0,.4-.2h.2Z"/>
        <path class="cls-4" d="M443.7,33.1c.4.4.7,1,.7,1.6s-.2,1.2-.6,1.6c-.4.4-1,.6-1.6.5-.5,0-.8-.3-1.1-.7l-1.1.6h-.2v-4.3c0-.3,0-.6-.1-.8-.1-.2-.3-.3-.6-.3v-.3c.3,0,.7,0,1-.2.4-.1.7-.3,1-.5h.2v2.6c.3-.3.6-.4,1-.5.7,0,1.2,0,1.7.5ZM442.9,36c0-.3,0-.8,0-1.3,0-.5-.2-1-.5-1.2-.2-.3-.4-.4-.7-.4-.3,0-.5.2-.5.6s0,.8,0,1.3.2,1,.5,1.2c.2.3.4.4.7.4.3,0,.5-.2.5-.6Z"/>
      </g>
      <g>
        <g>
          <g>
            <path class="cls-9" d="M441.9,57.9c0,.3,0,.6.1.7,0,.2.3.2.6.2v.2h-2.9v-.2c.3,0,.5,0,.6-.2,0-.2.1-.4.1-.7v-2.7c0-.3,0-.5-.1-.7,0-.2-.3-.2-.6-.2v-.2l1.9-.8h.2v4.8Z"/>
            <path class="cls-9" d="M447.3,57v2.1h-4.2c0-.5,0-1,.3-1.4.2-.4.5-.8.9-1.1s.8-.6,1-.9c.2-.3.3-.5.4-.8.1-.4.1-.7,0-1-.1-.3-.3-.5-.6-.5-.2,0-.4,0-.6.2-.2.1-.2.3-.3.5,0,.5.2.8.6.8,0,.2,0,.4-.2.5-.1.1-.3.2-.6.2s-.5-.1-.7-.3c-.2-.2-.2-.5-.1-.9,0-.4.3-.7.7-.9.4-.2.8-.3,1.2-.3s1.1.1,1.5.4c.4.3.6.7.6,1.2,0,.4-.2.8-.4,1.1-.1.1-.3.2-.5.4-.2.1-.3.2-.5.3-.1,0-.3.1-.5.3-.3.1-.5.2-.6.3-.1,0-.3.1-.5.3-.4.2-.6.5-.7.8h1.9c.4,0,.7,0,.9-.2.2-.1.4-.4.5-.7h.2Z"/>
          </g>
          <path class="cls-9" d="M450.1,53.7c0,.3,0,.5-.3.7-.2.2-.4.3-.6.3s-.5,0-.6-.3c-.2-.2-.3-.4-.3-.7s0-.5.3-.7.4-.3.6-.3.5,0,.6.3.3.4.3.7ZM451.2,52.7h.2l-2.6,4.2h-.2l2.6-4.2ZM449.3,54.5c.2,0,.3-.4.2-.9,0-.3,0-.4-.2-.6,0-.1-.2-.2-.3-.2,0,0-.2.1-.2.3s0,.4,0,.6c0,.5.2.8.4.7ZM451.6,56.7c-.2.2-.4.3-.6.3s-.5,0-.6-.3-.3-.4-.3-.7,0-.5.3-.7.4-.3.6-.3.5,0,.6.3c.2.2.3.4.3.7s0,.5-.3.7ZM451.3,55.9c0-.5-.2-.8-.4-.8-.2,0-.3.4-.2.9,0,.5.2.8.4.7.2,0,.3-.4.2-.9Z"/>
        </g>
        <path class="cls-6" d="M444.6,66.5c-5.8,0-10.4-4.7-10.4-10.4s4.7-10.4,10.4-10.4,10.4,4.7,10.4,10.4-4.7,10.4-10.4,10.4ZM444.6,45.9c-5.6,0-10.2,4.6-10.2,10.2s4.6,10.2,10.2,10.2,10.2-4.6,10.2-10.2-4.6-10.2-10.2-10.2Z"/>
      </g>
      <g>
        <g>
          <g>
            <path class="cls-9" d="M467.8,57.9c0,.3,0,.6.1.7,0,.2.3.2.6.2v.2h-2.9v-.2c.3,0,.5,0,.6-.2,0-.2.1-.4.1-.7v-2.7c0-.3,0-.5-.1-.7,0-.2-.3-.2-.6-.2v-.2l1.9-.8h.2v4.8Z"/>
            <path class="cls-9" d="M469.7,55.4c1.1-.4,2.1-.4,2.7,0,.7.4,1,1,.9,1.9,0,.6-.3,1-.8,1.4-.4.3-1,.5-1.5.5s-.9-.1-1.3-.3c-.4-.2-.7-.5-.8-.9,0-.3,0-.6,0-.9.2-.2.4-.3.7-.3s.5,0,.6.2c.1.2.2.3.2.5-.2,0-.4,0-.5.2-.1.1-.2.3-.1.6,0,.2.1.3.3.5.2.1.4.2.6.1.7,0,1-.6,1-1.6,0,0,0-.2,0-.3,0-.2-.1-.5-.2-.7-.1-.2-.4-.4-.7-.5-.3-.1-.8-.1-1.3,0h-.3l.2-2.7h2.4c.4,0,.7-.1.8-.4h.2v1.5h-3.2v1.1Z"/>
          </g>
          <path class="cls-9" d="M476,53.7c0,.3,0,.5-.3.7-.2.2-.4.3-.6.3s-.5,0-.6-.3c-.2-.2-.3-.4-.3-.7s0-.5.3-.7.4-.3.6-.3.5,0,.6.3.3.4.3.7ZM477.1,52.7h.2l-2.6,4.2h-.2l2.6-4.2ZM475.2,54.5c.2,0,.3-.4.2-.9,0-.3,0-.4-.2-.6,0-.1-.2-.2-.3-.2,0,0-.2.1-.2.3s0,.4,0,.6c0,.5.2.8.4.7ZM477.5,56.7c-.2.2-.4.3-.6.3s-.5,0-.6-.3-.3-.4-.3-.7,0-.5.3-.7.4-.3.6-.3.5,0,.6.3c.2.2.3.4.3.7s0,.5-.3.7ZM477.2,55.9c0-.5-.2-.8-.4-.8-.2,0-.3.4-.2.9,0,.5.2.8.4.7.2,0,.3-.4.2-.9Z"/>
        </g>
        <path class="cls-6" d="M470.6,66.5c-5.8,0-10.4-4.7-10.4-10.4s4.7-10.4,10.4-10.4,10.4,4.7,10.4,10.4-4.7,10.4-10.4,10.4ZM470.6,45.9c-5.6,0-10.2,4.6-10.2,10.2s4.6,10.2,10.2,10.2,10.2-4.6,10.2-10.2-4.6-10.2-10.2-10.2Z"/>
      </g>
      <g>
        <g>
          <g>
            <path class="cls-9" d="M493.8,57.9c0,.3,0,.6.1.7,0,.2.3.2.6.2v.2h-2.9v-.2c.3,0,.5,0,.6-.2,0-.2.1-.4.1-.7v-2.7c0-.3,0-.5-.1-.7,0-.2-.3-.2-.6-.2v-.2l1.9-.8h.2v4.8Z"/>
            <path class="cls-9" d="M498.9,53.1v.5c0,.1-.2.3-.3.5,0,.2-.2.4-.4.7-.2.3-.3.6-.4,1s-.2.7-.3,1.1c0,.4-.1.9,0,1.3,0,.6-.2,1-.7,1s-.8-.3-.8-.9,0-.7.2-1c.1-.4.2-.7.4-.9.1-.3.3-.5.6-.8s.4-.5.6-.7c.1-.2.3-.3.5-.5h-2.3c-.5,0-.7,0-.8.4h-.2v-1.5h4.2Z"/>
          </g>
          <path class="cls-9" d="M502.1,53.7c0,.3,0,.5-.3.7-.2.2-.4.3-.6.3s-.5,0-.6-.3c-.2-.2-.3-.4-.3-.7s0-.5.3-.7.4-.3.6-.3.5,0,.6.3.3.4.3.7ZM503.2,52.7h.2l-2.6,4.2h-.2l2.6-4.2ZM501.2,54.5c.2,0,.3-.4.2-.9,0-.3,0-.4-.2-.6,0-.1-.2-.2-.3-.2,0,0-.2.1-.2.3s0,.4,0,.6c0,.5.2.8.4.7ZM503.6,56.7c-.2.2-.4.3-.6.3s-.5,0-.6-.3-.3-.4-.3-.7,0-.5.3-.7.4-.3.6-.3.5,0,.6.3c.2.2.3.4.3.7s0,.5-.3.7ZM503.3,55.9c0-.5-.2-.8-.4-.8-.2,0-.3.4-.2.9,0,.5.2.8.4.7.2,0,.3-.4.2-.9Z"/>
        </g>
        <path class="cls-6" d="M496.6,66.5c-5.8,0-10.4-4.7-10.4-10.4s4.7-10.4,10.4-10.4,10.4,4.7,10.4,10.4-4.7,10.4-10.4,10.4ZM496.6,45.9c-5.6,0-10.2,4.6-10.2,10.2s4.6,10.2,10.2,10.2,10.2-4.6,10.2-10.2-4.6-10.2-10.2-10.2Z"/>
      </g>
      <g>
        <g>
          <g>
            <path class="cls-4" d="M520.5,57v2.1h-4.2c0-.5,0-1,.3-1.4.2-.4.5-.8.9-1.1s.8-.6,1-.9c.2-.3.3-.5.4-.8.1-.4.1-.7,0-1-.1-.3-.3-.5-.6-.5-.2,0-.4,0-.6.2-.2.1-.2.3-.3.5,0,.5.2.8.6.8,0,.2,0,.4-.2.5-.1.1-.3.2-.6.2s-.5-.1-.7-.3c-.2-.2-.2-.5-.1-.9,0-.4.3-.7.7-.9.4-.2.8-.3,1.2-.3s1.1.1,1.5.4c.4.3.6.7.6,1.2,0,.4-.2.8-.4,1.1-.1.1-.3.2-.5.4-.2.1-.3.2-.5.3-.1,0-.3.1-.5.3-.3.1-.5.2-.6.3-.1,0-.3.1-.5.3-.4.2-.6.5-.7.8h1.9c.4,0,.7,0,.9-.2.2-.1.4-.4.5-.7h.2Z"/>
            <path class="cls-4" d="M523.4,53.1c.7,0,1.3.3,1.8.8.4.6.7,1.3.7,2.2s-.2,1.7-.7,2.2c-.4.6-1,.8-1.8.8s-1.3-.3-1.8-.8c-.4-.6-.7-1.3-.7-2.2s.2-1.7.7-2.2c.4-.6,1-.8,1.8-.8ZM524.3,57.9c.1-.6.1-1.2,0-2-.1-.8-.3-1.4-.5-1.9-.2-.5-.5-.7-.8-.6-.3,0-.5.4-.6.9-.1.6-.1,1.2,0,2,.1.8.3,1.4.5,1.9.2.4.5.6.8.6.3,0,.5-.3.6-.9Z"/>
          </g>
          <path class="cls-4" d="M528.4,53.7c0,.3,0,.5-.3.7-.2.2-.4.3-.6.3s-.5,0-.6-.3c-.2-.2-.3-.4-.3-.7s0-.5.3-.7c.2-.2.4-.3.6-.3s.5,0,.6.3c.2.2.3.4.3.7ZM529.5,52.7h.2l-2.6,4.2h-.2l2.6-4.2ZM527.6,54.5c.2,0,.3-.4.2-.9,0-.3,0-.4-.2-.6,0-.1-.2-.2-.3-.2,0,0-.2.1-.2.3,0,.2,0,.4,0,.6,0,.5.2.8.4.7ZM529.9,56.7c-.2.2-.4.3-.6.3s-.5,0-.6-.3c-.2-.2-.3-.4-.3-.7s0-.5.3-.7c.2-.2.4-.3.6-.3s.5,0,.6.3c.2.2.3.4.3.7s0,.5-.3.7ZM529.6,55.9c0-.5-.2-.8-.4-.8-.2,0-.3.4-.2.9,0,.5.2.8.4.7.2,0,.3-.4.2-.9Z"/>
        </g>
        <path class="cls-6" d="M522.6,66.5c-5.8,0-10.4-4.7-10.4-10.4s4.7-10.4,10.4-10.4,10.4,4.7,10.4,10.4-4.7,10.4-10.4,10.4ZM522.6,45.9c-5.6,0-10.2,4.6-10.2,10.2s4.6,10.2,10.2,10.2,10.2-4.6,10.2-10.2-4.6-10.2-10.2-10.2Z"/>
      </g>
      <g>
        <path class="cls-6" d="M312.3,34.2l-1.4.4c-1.5.4-2.6,1.6-2.9,3.1l-.3,1.4-.3-1.4c-.3-1.5-1.4-2.7-2.9-3.1l-1.4-.4,1.4-.4c1.5-.4,2.6-1.6,2.9-3l.2-1.2.2,1.2c.3,1.5,1.4,2.7,2.9,3l1.4.4Z"/>
        <rect class="cls-6" x="318" y="34.1" width="64" height=".2"/>
      </g>
      <g>
        <path class="cls-6" d="M523.8,34.2l1.4.4c1.5.4,2.6,1.6,2.9,3.1l.3,1.4.3-1.4c.3-1.5,1.4-2.7,2.9-3.1l1.4-.4-1.4-.4c-1.5-.4-2.6-1.6-2.9-3l-.2-1.2-.2,1.2c-.3,1.5-1.4,2.7-2.9,3l-1.4.4Z"/>
        <rect class="cls-6" x="454.1" y="34.1" width="64" height=".2"/>
      </g>
      <g>
        <g>
          <path class="cls-8" d="M307.5,12.7h1.8v.2c-.3,0-.5,0-.6.2,0,.1-.1.4-.1.7v4.5h-.5l-3.7-4.6v3.5c0,.3,0,.6.2.7s.3.2.6.2v.2h-1.8v-.2c.3,0,.5,0,.6-.2,0-.1.1-.4.1-.7v-3.3c0-.3,0-.5-.1-.7s-.3-.2-.6-.2v-.2h2.1l2.8,3.4v-2.3c0-.3,0-.6-.2-.7s-.3-.2-.6-.2v-.2Z"/>
          <path class="cls-8" d="M314,18.1c-.2.2-.5.3-.8.3-.2,0-.5,0-.7-.1-.2,0-.3-.2-.4-.4-.2.4-.6.5-1.1.5s-.7,0-.9-.2c-.3-.1-.4-.3-.5-.6,0-.3,0-.6.2-.8.2-.2.5-.4.9-.5.1,0,.3,0,.4,0,.2,0,.3,0,.3,0s.2,0,.2,0c.1,0,.2-.2.1-.4,0-.6-.3-.8-.6-.8-.2,0-.4,0-.5.2s0,.3,0,.5c0,.2-.2.3-.4.3-.1,0-.3,0-.4,0-.2-.1-.3-.3-.2-.6,0-.2.3-.4.5-.5s.5-.1.8-.1c.6,0,1.1.1,1.4.3.3.2.5.6.6,1.1l.2,1.1c0,.4.1.6.2.7,0,.1.2.1.4,0v.2ZM312,17.1c0-.3,0-.6,0-.8,0,0,0,.1-.1.1s-.2,0-.4.1c-.4.1-.6.4-.5.8,0,.2.1.3.3.4.1,0,.3.1.5,0,.3,0,.5-.4.5-.8Z"/>
          <path class="cls-8" d="M321.6,17.2c0,.2,0,.3,0,.4s0,.2.1.3c0,.2.3.3.6.3v.2h-2.6v-.2c.3,0,.4,0,.5-.2,0-.2,0-.4,0-.7,0-.5-.1-.8-.2-1,0-.1,0-.2,0-.3s0-.1,0-.2c0-.1,0-.2-.1-.2,0,0-.2-.2-.4-.2-.4,0-.6.3-.6.9v1c0,.3,0,.5.1.7,0,.2.3.2.6.2v.2h-2.6v-.2c.2,0,.4,0,.5-.2,0,0,0-.1,0-.2s0-.2,0-.2c0,0,0-.2,0-.3v-1c0-.6-.2-.9-.7-.9s-.7.4-.7.9v1c0,.1,0,.2,0,.3,0,0,0,.1,0,.2s0,.2,0,.2c0,0,.2.2.5.2v.2h-2.6v-.2c.3,0,.5,0,.6-.2,0-.2.1-.4.1-.7v-.8c0-.3,0-.5-.1-.7s-.3-.2-.6-.2v-.2c.3,0,.6,0,.9-.2.3-.1.6-.3.8-.5h.2v.6c.3-.4.7-.6,1.3-.6s1.1.2,1.3.8c.3-.5.7-.8,1.3-.8.8,0,1.2.4,1.4,1.4l.2,1.1Z"/>
          <path class="cls-8" d="M326.5,17.2c-.1.3-.4.6-.7.9s-.7.3-1.1.3-1.1-.2-1.5-.5-.6-.7-.6-1.2c0-.6.1-1.1.5-1.5.4-.4.9-.6,1.5-.6s1,.1,1.3.4.5.7.4,1.2l-2.5.4c0,.3.2.6.5.7.3.2.6.2,1,.1s.7-.2.9-.5c0,0,.1.1.1.1ZM324,15.3c-.1.3-.1.6,0,1l1.3-.2c0-.8-.2-1.3-.7-1.2-.2,0-.4.2-.5.4Z"/>
          <path class="cls-8" d="M327.7,16.1c-.2,0-.4,0-.6-.2-.2-.1-.2-.3-.2-.5s0-.4.2-.5.4-.2.6-.2.4,0,.6.2c.2.1.2.3.2.5s0,.4-.2.5c-.2.1-.4.2-.6.2ZM327.7,16.9c.2,0,.4,0,.6.2.2.1.2.3.2.5s0,.4-.2.5c-.2.1-.4.2-.6.2s-.4,0-.6-.2-.2-.3-.2-.5,0-.4.2-.5.4-.2.6-.2Z"/>
        </g>
        <g>
          <rect class="cls-6" x="331.7" y="18.1" width=".5" height=".2"/>
          <path class="cls-6" d="M380,18.4h-1v-.2h1v.2ZM378,18.4h-1v-.2h1v.2ZM376,18.4h-1v-.2h1v.2ZM374,18.4h-1v-.2h1v.2ZM372,18.4h-1v-.2h1v.2ZM370,18.4h-1v-.2h1v.2ZM368,18.4h-1v-.2h1v.2ZM366.1,18.4h-1v-.2h1v.2ZM364.1,18.4h-1v-.2h1v.2ZM362.1,18.4h-1v-.2h1v.2ZM360.1,18.4h-1v-.2h1v.2ZM358.1,18.4h-1v-.2h1v.2ZM356.1,18.4h-1v-.2h1v.2ZM354.1,18.4h-1v-.2h1v.2ZM352.1,18.4h-1v-.2h1v.2ZM350.1,18.4h-1v-.2h1v.2ZM348.1,18.4h-1v-.2h1v.2ZM346.1,18.4h-1v-.2h1v.2ZM344.1,18.4h-1v-.2h1v.2ZM342.1,18.4h-1v-.2h1v.2ZM340.1,18.4h-1v-.2h1v.2ZM338.1,18.4h-1v-.2h1v.2ZM336.2,18.4h-1v-.2h1v.2ZM334.2,18.4h-1v-.2h1v.2Z"/>
          <rect class="cls-6" x="381" y="18.1" width=".5" height=".2"/>
        </g>
      </g>
      <g>
        <path class="cls-1" d="M533.3,18.2"/>
        <path class="cls-8" d="M478.5,18.2"/>
        <g>
          <path class="cls-8" d="M441.1,16.2v1c0,.6.3.9.9.9v.2h-3v-.2c.5,0,.8-.3.8-.9v-3.3c0-.6-.2-.9-.8-.9v-.2h2.3c1.8,0,2.7.6,2.7,1.7s-.9,1.7-2.7,1.7h-.1ZM441.1,13v2.8h.1c.9,0,1.3-.5,1.3-1.4s-.4-1.4-1.3-1.4h-.1Z"/>
          <path class="cls-8" d="M448.1,15c.1.2.1.4,0,.7,0,.2-.2.4-.4.4-.2,0-.4,0-.5,0,.1-.4,0-.6-.2-.7-.2,0-.3,0-.5,0-.1,0-.2.2-.2.4v1.3c0,.3,0,.5.1.7,0,.2.3.2.5.2v.2h-2.6v-.2c.3,0,.5,0,.6-.2,0-.2.1-.4.1-.7v-.8c0-.3,0-.5-.1-.7,0-.2-.3-.2-.6-.2v-.2c.3,0,.6,0,.9-.2.3-.1.6-.3.9-.5h.2v.7c.3-.6.7-.8,1.2-.7.3,0,.5.2.6.4Z"/>
          <path class="cls-8" d="M452.5,17.2c-.1.3-.4.6-.7.9s-.7.3-1.1.3-1.1-.2-1.5-.5-.6-.7-.6-1.2c0-.6.1-1.1.5-1.5.4-.4.9-.6,1.5-.6s1,.1,1.3.4.5.7.4,1.2l-2.5.4c0,.3.2.6.5.7.3.2.6.2,1,.1s.7-.2.9-.5c0,0,.1.1.1.1ZM450,15.3c-.1.3-.1.6,0,1l1.3-.2c0-.8-.2-1.3-.7-1.2-.2,0-.4.2-.5.4Z"/>
          <path class="cls-8" d="M455.3,13.3c0-.2-.2-.4-.4-.4s-.3,0-.4.3c0,.2,0,.4,0,.6.1.4.2.7.2.9h1.1v.3h-1.1v2.2c0,.6.3.9.8.9v.2h-2.8v-.2c.3,0,.5,0,.6-.2,0-.2.1-.4.1-.7v-2.2h-.7v-.3h.7c0-.7.1-1.2.3-1.5s.6-.5,1.2-.5.7,0,.9.2c.3.1.4.4.3.6,0,.2,0,.3-.2.3-.2.1-.5.1-.8,0,0-.1,0-.3,0-.5Z"/>
          <path class="cls-8" d="M459.9,17.2c-.1.3-.4.6-.7.9s-.7.3-1.1.3-1.1-.2-1.5-.5-.6-.7-.6-1.2c0-.6.1-1.1.5-1.5.4-.4.9-.6,1.5-.6s1,.1,1.3.4.5.7.4,1.2l-2.5.4c0,.3.2.6.5.7.3.2.6.2,1,.1s.7-.2.9-.5c0,0,.1.1.1.1ZM457.4,15.3c-.1.3-.1.6,0,1l1.3-.2c0-.8-.2-1.3-.7-1.2-.2,0-.4.2-.5.4Z"/>
          <path class="cls-8" d="M464,15c.1.2.1.4,0,.7,0,.2-.2.4-.4.4-.2,0-.4,0-.5,0,.1-.4,0-.6-.2-.7-.2,0-.3,0-.5,0-.1,0-.2.2-.2.4v1.3c0,.3,0,.5.1.7,0,.2.3.2.5.2v.2h-2.6v-.2c.3,0,.5,0,.6-.2,0-.2.1-.4.1-.7v-.8c0-.3,0-.5-.1-.7,0-.2-.3-.2-.6-.2v-.2c.3,0,.6,0,.9-.2.3-.1.6-.3.9-.5h.2v.7c.3-.6.7-.8,1.2-.7.3,0,.5.2.6.4Z"/>
          <path class="cls-8" d="M468.5,15c.1.2.1.4,0,.7,0,.2-.2.4-.4.4-.2,0-.4,0-.5,0,.1-.4,0-.6-.2-.7-.2,0-.3,0-.5,0-.1,0-.2.2-.2.4v1.3c0,.3,0,.5.1.7,0,.2.3.2.5.2v.2h-2.6v-.2c.3,0,.5,0,.6-.2,0-.2.1-.4.1-.7v-.8c0-.3,0-.5-.1-.7,0-.2-.3-.2-.6-.2v-.2c.3,0,.6,0,.9-.2.3-.1.6-.3.9-.5h.2v.7c.3-.6.7-.8,1.2-.7.3,0,.5.2.6.4Z"/>
          <path class="cls-8" d="M472.9,17.2c-.1.3-.4.6-.7.9s-.7.3-1.1.3-1.1-.2-1.5-.5-.6-.7-.6-1.2c0-.6.1-1.1.5-1.5.4-.4.9-.6,1.5-.6s1,.1,1.3.4.5.7.4,1.2l-2.5.4c0,.3.2.6.5.7.3.2.6.2,1,.1s.7-.2.9-.5c0,0,.1.1.1.1ZM470.3,15.3c-.1.3-.1.6,0,1l1.3-.2c0-.8-.2-1.3-.7-1.2-.2,0-.4.2-.5.4Z"/>
          <path class="cls-8" d="M478.2,17.8c-.2.4-.5.6-.9.6-.4,0-.7-.1-.9-.4-.3.2-.6.4-1,.4-.6,0-1.1-.2-1.5-.5-.4-.3-.6-.8-.6-1.4s.2-1.1.6-1.4c.4-.4.9-.5,1.5-.4.3,0,.6.2.9.4v-.5c0-.3,0-.5-.1-.7,0-.2-.3-.2-.6-.2v-.2c.3,0,.6,0,.9-.2.3-.1.6-.3.9-.5h.2v4.5c0,.5,0,.7.2.7s.2,0,.3-.2h.1ZM476.1,17.5c0-.3,0-.7,0-1.2s-.2-.9-.4-1.1c-.2-.3-.4-.4-.6-.3-.2,0-.4.2-.5.5s0,.7,0,1.2.2.8.4,1.1c.2.3.4.4.6.3.2,0,.4-.2.5-.5Z"/>
          <path class="cls-8" d="M479.4,16.1c-.2,0-.4,0-.6-.2-.2-.1-.2-.3-.2-.5s0-.4.2-.5.4-.2.6-.2.4,0,.6.2c.2.1.2.3.2.5s0,.4-.2.5c-.2.1-.4.2-.6.2ZM479.4,16.9c.2,0,.4,0,.6.2.2.1.2.3.2.5s0,.4-.2.5c-.2.1-.4.2-.6.2s-.4,0-.6-.2-.2-.3-.2-.5,0-.4.2-.5.4-.2.6-.2Z"/>
        </g>
        <g>
          <rect class="cls-6" x="483.5" y="18.1" width=".5" height=".2"/>
          <path class="cls-6" d="M531.8,18.4h-1v-.2h1v.2ZM529.8,18.4h-1v-.2h1v.2ZM527.9,18.4h-1v-.2h1v.2ZM525.9,18.4h-1v-.2h1v.2ZM523.9,18.4h-1v-.2h1v.2ZM521.9,18.4h-1v-.2h1v.2ZM519.9,18.4h-1v-.2h1v.2ZM517.9,18.4h-1v-.2h1v.2ZM515.9,18.4h-1v-.2h1v.2ZM513.9,18.4h-1v-.2h1v.2ZM511.9,18.4h-1v-.2h1v.2ZM509.9,18.4h-1v-.2h1v.2ZM507.9,18.4h-1v-.2h1v.2ZM505.9,18.4h-1v-.2h1v.2ZM503.9,18.4h-1v-.2h1v.2ZM501.9,18.4h-1v-.2h1v.2ZM499.9,18.4h-1v-.2h1v.2ZM497.9,18.4h-1v-.2h1v.2ZM496,18.4h-1v-.2h1v.2ZM494,18.4h-1v-.2h1v.2ZM492,18.4h-1v-.2h1v.2ZM490,18.4h-1v-.2h1v.2ZM488,18.4h-1v-.2h1v.2ZM486,18.4h-1v-.2h1v.2Z"/>
          <rect class="cls-6" x="532.8" y="18.1" width=".5" height=".2"/>
        </g>
      </g>
      <g>
        <path class="cls-8" d="M312.9,125.7h2v.2c-.3,0-.5,0-.7.3,0,0-.1.2-.2.3s0,.2-.2.4l-1.6,4.5h-.4l-1.5-3.6-1.3,3.6h-.4l-1.9-4.5c-.2-.4-.3-.6-.4-.7-.1-.1-.3-.2-.5-.2v-.2h2.8v.2c-.6,0-.7.3-.4.9l1.2,2.7.8-2.3-.2-.4s0,0,0-.2c0,0,0-.2,0-.2s0,0,0-.1c0,0,0-.1,0-.1,0,0-.1-.2-.2-.2,0,0-.2,0-.3,0v-.2h2.8v.2c-.6,0-.7.3-.5.9l1.1,2.7,1-2.7c.2-.7,0-.9-.6-.9v-.2Z"/>
        <path class="cls-8" d="M318.1,130.1c-.1.3-.4.6-.7.9s-.7.3-1.1.3-1.1-.2-1.5-.5-.6-.7-.6-1.2c0-.6.1-1.1.5-1.5.4-.4.9-.6,1.5-.6s1,.1,1.3.4.5.7.4,1.2l-2.5.4c0,.3.2.6.5.7.3.2.6.2,1,.1s.7-.2.9-.5c0,0,.1.1.1.1ZM315.6,128.3c-.1.3-.1.6,0,1l1.3-.2c0-.8-.2-1.3-.7-1.2-.2,0-.4.2-.5.4Z"/>
        <path class="cls-8" d="M323.7,128.1c.4.3.6.8.6,1.4s-.2,1-.6,1.4c-.4.3-.9.5-1.5.5s-1.1-.2-1.5-.5c-.4-.3-.6-.8-.6-1.4s.2-1,.6-1.4c.4-.3.9-.5,1.5-.5s1.1.2,1.5.5ZM322.9,130.5c0-.3,0-.7,0-1.2,0-.5-.2-.9-.4-1.1-.2-.3-.4-.4-.6-.3s-.4.2-.5.5,0,.7,0,1.2.2.8.4,1.1c.2.3.4.4.6.3.2,0,.4-.2.5-.5Z"/>
        <path class="cls-8" d="M328.8,128c.4.4.6.9.6,1.4s-.2,1.1-.6,1.4-.9.5-1.4.4c-.4,0-.7-.2-.9-.5v1.2c0,.6.3.9.8.9v.2h-2.8v-.2c.3,0,.5,0,.6-.2,0-.2.1-.4.1-.7v-2.7c0-.3,0-.5-.1-.7s-.3-.2-.6-.2v-.2c.3,0,.6,0,.9-.2.3-.1.6-.3.9-.5h.2v.4c.2-.2.5-.4.8-.4.6,0,1.1,0,1.5.4ZM328.1,130.5c0-.3,0-.7,0-1.2,0-.5-.2-.9-.4-1.1-.2-.3-.4-.4-.6-.3s-.4.2-.5.5c0,.3,0,.7,0,1.2,0,.5.2.9.4,1.1.2.3.4.4.6.3.2,0,.4-.2.5-.5Z"/>
        <path class="cls-8" d="M334,130.1c-.1.3-.4.6-.7.9s-.7.3-1.1.3-1.1-.2-1.5-.5-.6-.7-.6-1.2c0-.6.1-1.1.5-1.5.4-.4.9-.6,1.5-.6s1,.1,1.3.4.5.7.4,1.2l-2.5.4c0,.3.2.6.5.7.3.2.6.2,1,.1s.7-.2.9-.5c0,0,.1.1.1.1ZM331.4,128.3c-.1.3-.1.6,0,1l1.3-.2c0-.8-.2-1.3-.7-1.2-.2,0-.4.2-.5.4Z"/>
        <path class="cls-8" d="M339.1,130.1c0,.1,0,.2,0,.3,0,0,0,.1,0,.2,0,.1,0,.2.1.2,0,0,.3.2.5.2v.2h-2.6v-.2c.2,0,.3,0,.4-.1.2-.2.2-.5.1-.8,0-.5-.1-.8-.2-1,0-.1,0-.2,0-.3,0,0,0-.1,0-.2,0,0,0-.2-.1-.2,0,0-.2-.2-.5-.2-.5,0-.7.4-.7,1v1c0,.3,0,.5.1.7,0,.2.3.2.5.2v.2h-2.6v-.2c.3,0,.5,0,.6-.2,0-.2.1-.4.1-.7v-.8c0-.3,0-.5-.1-.7s-.3-.2-.6-.2v-.2c.3,0,.6,0,.9-.2.3-.1.6-.3.9-.5h.2v.6c.3-.4.7-.6,1.3-.6.8,0,1.2.4,1.4,1.4l.2,1.1Z"/>
        <path class="cls-2" d="M309.9,136.7v.5c0,.1-.2.3-.3.4,0,.1-.2.4-.4.7-.1.3-.3.6-.4.9s-.2.7-.3,1.1c0,.4-.1.8,0,1.2,0,.6-.2.9-.7.9s-.8-.3-.8-.8,0-.6.2-1c.1-.3.2-.6.4-.9.1-.2.3-.5.5-.8s.4-.5.5-.6.3-.3.5-.5h-2.2c-.4,0-.7,0-.8.3h-.2v-1.4h3.9Z"/>
        <path class="cls-2" d="M316.9,141.8c-.2.4-.5.6-.9.6-.4,0-.7-.1-.9-.4-.3.2-.6.4-1,.4-.6,0-1.1-.2-1.5-.5-.4-.3-.6-.8-.6-1.4s.2-1.1.6-1.4c.4-.4.9-.5,1.5-.4.3,0,.6.2.9.4v-.5c0-.3,0-.5-.1-.7,0-.2-.3-.2-.6-.2v-.2c.3,0,.6,0,.9-.2.3-.1.6-.3.9-.5h.2v4.5c0,.5,0,.7.2.7s.2,0,.3-.2h.1ZM314.9,141.5c0-.3,0-.7,0-1.2s-.2-.9-.4-1.1c-.2-.3-.4-.4-.6-.3-.2,0-.4.2-.5.5s0,.7,0,1.2.2.8.4,1.1c.2.3.4.4.6.3.2,0,.4-.2.5-.5Z"/>
        <path class="cls-2" d="M321.9,142c-.2.2-.5.3-.8.3-.2,0-.5,0-.7-.1-.2,0-.3-.2-.4-.4-.2.4-.6.5-1.1.5s-.7,0-.9-.2c-.3-.1-.4-.3-.5-.6,0-.3,0-.6.2-.8.2-.2.5-.4.9-.5.1,0,.3,0,.4,0,.2,0,.3,0,.3,0s.2,0,.2,0c.1,0,.2-.2.1-.4,0-.6-.3-.8-.6-.8-.2,0-.4,0-.5.2s0,.3,0,.5c0,.2-.2.3-.4.3-.1,0-.3,0-.4,0-.2-.1-.3-.3-.2-.6,0-.2.3-.4.5-.5s.5-.1.8-.1c.6,0,1.1.1,1.4.3.3.2.5.6.6,1.1l.2,1.1c0,.4.1.6.2.7,0,.1.2.1.4,0v.2ZM319.9,141c0-.3,0-.6,0-.8,0,0,0,.1-.1.1s-.2,0-.4.1c-.4.1-.6.4-.5.8,0,.2.1.3.3.4.1,0,.3.1.5,0,.3,0,.5-.4.5-.8Z"/>
        <path class="cls-2" d="M324.4,138.7h1.4v.2c-.4,0-.6.2-.7.5l-1.2,2.9c0,.2-.1.3-.2.4,0,0,0,.2-.2.4,0,.2-.1.3-.2.4,0,0-.1.2-.2.3s-.2.2-.3.3c-.2.1-.4.2-.6.2s-.6-.1-.7-.4c0-.2,0-.4,0-.6.1-.2.2-.3.4-.4.1.3.4.4.7.4.4,0,.7-.4.9-.9l-1.6-3.1c-.1-.3-.4-.4-.6-.4v-.2h2.3v.2c-.4,0-.4.1-.3.5l.7,1.5.6-1.5c0-.1,0-.3,0-.3,0-.2-.2-.2-.5-.2v-.2Z"/>
        <path class="cls-2" d="M328.8,142.2c-.4.1-.8.2-1.3.2-.4,0-.7,0-1.1-.2-.3-.1-.5-.3-.6-.6s0-.5.1-.6.4-.3.6-.2c.4,0,.6.3.6.7-.2,0-.4.2-.3.4,0,.2.3.3.7.3.2,0,.4,0,.6,0,.2,0,.2-.2.3-.3,0-.2,0-.3-.2-.4-.1-.1-.3-.2-.5-.3,0,0-.1,0-.2,0-.2-.1-.3-.2-.4-.2,0,0-.2-.1-.4-.3-.3-.2-.4-.5-.4-.9,0-.2.1-.4.3-.6.3-.3.8-.3,1.3-.3.2,0,.4,0,.5.1.1,0,.2,0,.3-.1h.1v1.2c0,0-.1,0-.1,0,0-.3-.2-.6-.3-.7s-.3-.2-.5-.2c-.3,0-.5,0-.5.3,0,0,0,.1,0,.2,0,0,0,0,.1.2,0,0,.1,0,.2.1,0,0,.1,0,.1,0,0,0,0,0,.2,0,0,0,.1,0,.2,0,0,0,.3.1.4.2,0,0,.1,0,.2.1.2,0,.2.1.4.2.1.1.2.2.3.3,0,0,0,.1,0,.2,0,.1,0,.3,0,.5,0,.4-.3.6-.7.8Z"/>
        <path class="cls-2" d="M336.1,142c-.2.2-.5.3-.8.3-.2,0-.5,0-.7-.1-.2,0-.3-.2-.4-.4-.2.4-.6.5-1.1.5s-.7,0-.9-.2c-.3-.1-.4-.3-.5-.6,0-.3,0-.6.2-.8.2-.2.5-.4.9-.5.1,0,.3,0,.4,0,.2,0,.3,0,.3,0s.2,0,.2,0c.1,0,.2-.2.1-.4,0-.6-.3-.8-.6-.8-.2,0-.4,0-.5.2s0,.3,0,.5c0,.2-.2.3-.4.3-.1,0-.3,0-.4,0-.2-.1-.3-.3-.2-.6,0-.2.3-.4.5-.5s.5-.1.8-.1c.6,0,1.1.1,1.4.3.3.2.5.6.6,1.1l.2,1.1c0,.4.1.6.2.7,0,.1.2.1.4,0v.2ZM334.1,141c0-.3,0-.6,0-.8,0,0,0,.1-.1.1s-.2,0-.4.1c-.4.1-.6.4-.5.8,0,.2.1.3.3.4.1,0,.3.1.5,0,.3,0,.5-.4.5-.8Z"/>
        <path class="cls-2" d="M343.3,138.7h1.4v.2c-.4,0-.6.1-.7.5l-1.2,2.9h-.5l-.9-2.3-.9,2.3h-.5l-1.3-2.9c0-.2-.2-.3-.3-.4,0,0-.2-.1-.4-.1v-.2h2.3v.2c-.4,0-.5.1-.3.5l.7,1.6.6-1.4v-.2c-.2-.1-.2-.2-.2-.3,0-.1-.2-.2-.5-.2v-.2h2.3v.2c-.4,0-.5.1-.4.5l.6,1.6.7-1.6c0-.2,0-.4,0-.4,0,0-.2,0-.4,0v-.2Z"/>
        <path class="cls-2" d="M348.7,141.1c-.1.3-.4.6-.7.9s-.7.3-1.1.3-1.1-.2-1.5-.5-.6-.7-.6-1.2c0-.6.1-1.1.5-1.5.4-.4.9-.6,1.5-.6s1,.1,1.3.4.5.7.4,1.2l-2.5.4c0,.3.2.6.5.7.3.2.6.2,1,.1s.7-.2.9-.5c0,0,.1.1.1.1ZM346.2,139.3c-.1.3-.1.6,0,1l1.3-.2c0-.8-.2-1.3-.7-1.2-.2,0-.4.2-.5.4Z"/>
        <path class="cls-2" d="M353.2,141.1c-.1.3-.4.6-.7.9s-.7.3-1.1.3-1.1-.2-1.5-.5-.6-.7-.6-1.2c0-.6.1-1.1.5-1.5.4-.4.9-.6,1.5-.6s1,.1,1.3.4.5.7.4,1.2l-2.5.4c0,.3.2.6.5.7.3.2.6.2,1,.1s.7-.2.9-.5c0,0,.1.1.1.1ZM350.7,139.3c-.1.3-.1.6,0,1l1.3-.2c0-.8-.2-1.3-.7-1.2-.2,0-.4.2-.5.4Z"/>
        <path class="cls-2" d="M357.9,141.5c.2.3.4.5.8.5v.2h-2.3v-.2c.3,0,.3-.1.2-.4l-.6-1.2-.5.4v.2c0,.3,0,.5.1.7,0,.2.3.2.6.2v.2h-2.7v-.2c.3,0,.5,0,.6-.2,0-.2.1-.4.1-.7v-2.7c0-.3,0-.5-.1-.7,0-.2-.3-.2-.6-.2v-.2c.3,0,.6,0,.9-.2.3-.1.6-.3.9-.5h.2v3.8l1.3-1.1c.3-.3.3-.5-.1-.5v-.2h1.6v.2c-.4,0-.8.2-1.3.6h-.1c0,0,1.1,2,1.1,2Z"/>
        <path class="cls-2" d="M359.7,140.5c-.3-1.3-.5-2.3-.6-2.9,0-.3,0-.6.2-.7.2-.2.4-.2.6-.2s.4,0,.6.2c.2.2.2.4.2.7,0,.3-.1.7-.2,1.2s-.2.9-.3,1.3v.5h-.5ZM359.9,140.9c.2,0,.4,0,.6.2.2.1.2.3.2.5s0,.4-.2.5c-.2.1-.4.2-.6.2s-.4,0-.6-.2c-.2-.1-.2-.3-.2-.5s0-.4.2-.5c.2-.1.4-.2.6-.2Z"/>
      </g>
      <g>
        <path class="cls-8" d="M423.5,125.9c-.3,0-.5,0-.6.2-.1.2-.2.4-.2.7v3.3c0,.3,0,.5.2.7.1.2.3.2.6.2v.2h-2.9v-.2c.3,0,.5,0,.6-.2.1-.2.2-.4.2-.7v-3.7l-2,3.9h-.3l-2-3.7v3.5c0,.3,0,.6.2.7s.3.2.6.2v.2h-1.8v-.2c.3,0,.5,0,.6-.2,0-.1.1-.4.1-.7v-3.3c0-.3,0-.5-.1-.7s-.3-.2-.6-.2v-.2h2.1l1.6,3.2,1.6-3.2h2.1v.2Z"/>
        <path class="cls-8" d="M427.3,128.1c.4.3.6.8.6,1.4s-.2,1-.6,1.4c-.4.3-.9.5-1.5.5s-1.1-.2-1.5-.5c-.4-.3-.6-.8-.6-1.4s.2-1,.6-1.4c.4-.3.9-.5,1.5-.5s1.1.2,1.5.5ZM426.6,130.5c0-.3,0-.7,0-1.2,0-.5-.2-.9-.4-1.1-.2-.3-.4-.4-.6-.3s-.4.2-.5.5,0,.7,0,1.2.2.8.4,1.1c.2.3.4.4.6.3.2,0,.4-.2.5-.5Z"/>
        <path class="cls-8" d="M433.1,130.1c0,.1,0,.2,0,.3,0,0,0,.1,0,.2,0,.1,0,.2.1.2,0,0,.3.2.5.2v.2h-2.6v-.2c.2,0,.3,0,.4-.1.2-.2.2-.5.1-.8,0-.5-.1-.8-.2-1,0-.1,0-.2,0-.3,0,0,0-.1,0-.2,0,0,0-.2-.1-.2,0,0-.2-.2-.5-.2-.5,0-.7.4-.7,1v1c0,.3,0,.5.1.7,0,.2.3.2.5.2v.2h-2.6v-.2c.3,0,.5,0,.6-.2,0-.2.1-.4.1-.7v-.8c0-.3,0-.5-.1-.7s-.3-.2-.6-.2v-.2c.3,0,.6,0,.9-.2.3-.1.6-.3.9-.5h.2v.6c.3-.4.7-.6,1.3-.6.8,0,1.2.4,1.4,1.4l.2,1.1Z"/>
        <path class="cls-8" d="M436.1,128.3h3v.3h-3v-.3Z"/>
        <path class="cls-8" d="M445.4,128.5c.4.4.6.8.5,1.4,0,.3-.2.6-.5.9-.3.2-.6.4-.9.5-.3,0-.7.1-1.1.1-.5,0-1-.2-1.4-.4s-.7-.5-.7-.9c0-.3,0-.6.2-.8s.4-.3.7-.3c.2,0,.5.1.6.3.2.2.2.3.2.5-.2,0-.4,0-.5.2s-.2.3-.1.5c0,.4.4.6,1,.6.3,0,.6,0,.9-.2s.4-.3.4-.6c0-.2,0-.3,0-.4,0-.1-.1-.2-.3-.4s-.3-.2-.4-.2-.3-.2-.6-.3c0,0,0,0-.1,0-.5-.3-.9-.5-1.1-.6-.5-.4-.7-.8-.7-1.3,0-.6.3-1,.8-1.2s.9-.2,1.3-.2c.2,0,.3,0,.5,0,.2,0,.3,0,.3,0,.3,0,.4.1.5-.2h.2v1.8c.1,0-.1,0-.1,0-.1-.5-.3-.9-.5-1.1-.2-.2-.5-.4-.9-.4-.3,0-.5,0-.7.1s-.3.3-.3.5c0,.2.1.5.4.7.1,0,.3.2.4.2s.3.1.5.2c.2,0,.3.2.4.2.5.3.8.5,1,.6Z"/>
        <path class="cls-8" d="M450.9,131c-.2.2-.5.3-.8.3-.2,0-.5,0-.7-.1-.2,0-.3-.2-.4-.4-.2.4-.6.5-1.1.5s-.7,0-.9-.2c-.3-.1-.4-.3-.5-.6,0-.3,0-.6.2-.8.2-.2.5-.4.9-.5.1,0,.3,0,.4,0,.2,0,.3,0,.3,0s.2,0,.2,0c.1,0,.2-.2.1-.4,0-.6-.3-.8-.6-.8-.2,0-.4,0-.5.2,0,.2,0,.3,0,.5,0,.2-.2.3-.4.3-.1,0-.3,0-.4,0-.2-.1-.3-.3-.2-.6,0-.2.3-.4.5-.5s.5-.1.8-.1c.6,0,1.1.1,1.4.3.3.2.5.6.6,1.1l.2,1.1c0,.4.1.6.2.7,0,.1.2.1.4,0v.2ZM448.9,130c0-.3,0-.6,0-.8,0,0,0,.1-.1.1s-.2,0-.4.1c-.4.1-.6.4-.5.8,0,.2.1.3.3.4.1,0,.3.1.5,0,.3,0,.5-.4.5-.8Z"/>
        <path class="cls-8" d="M453.5,130.5c-.2.6-.6.9-1.1.9s-.6-.1-.8-.3-.3-.5-.3-.9v-2.1h-.6v-.3c.4,0,.8-.1,1.1-.4s.5-.6.6-1h.2v1.4h.8v.3h-.8v2.2c0,.4.1.5.3.5.2,0,.4,0,.5-.3h.2Z"/>
        <path class="cls-8" d="M457.5,125.7h.3v5.6h-.3v-5.6Z"/>
        <path class="cls-8" d="M465.9,129.1c-.2.5-.4.9-.8,1.2-.7.6-1.5.9-2.5.9v-.2c1-.2,1.7-.9,1.9-2.1-.2.2-.4.3-.8.3-.6,0-1.1,0-1.5-.4s-.5-.8-.5-1.4c0-.6.2-1,.6-1.3.4-.3.9-.5,1.5-.5s1,.2,1.4.5.7.8.7,1.4c0,.6,0,1.1-.2,1.6ZM464.6,128.3c0-.3,0-.7,0-1.1,0-.5-.2-.8-.4-1-.2-.2-.4-.3-.6-.3-.4,0-.6.6-.4,1.6.2.9.6,1.4,1,1.3.2,0,.4-.2.4-.5Z"/>
        <path class="cls-8" d="M467.2,129c-.2,0-.4,0-.6-.2-.2-.1-.2-.3-.2-.5s0-.4.2-.5.4-.2.6-.2.4,0,.6.2c.2.1.2.3.2.5s0,.4-.2.5c-.2.1-.4.2-.6.2ZM467.2,129.9c.2,0,.4,0,.6.2.2.1.2.3.2.5s0,.4-.2.5c-.2.1-.4.2-.6.2s-.4,0-.6-.2-.2-.3-.2-.5,0-.4.2-.5.4-.2.6-.2Z"/>
        <path class="cls-8" d="M470.8,127.9c.6,0,1.1.1,1.5.5.4.3.5.8.5,1.3,0,.6-.3,1-.7,1.3-.4.3-.9.4-1.5.4s-.9-.1-1.3-.3c-.4-.2-.6-.5-.7-.8,0-.3,0-.6,0-.8.2-.2.4-.3.6-.3s.4,0,.6.2c.1.1.2.3.2.5-.4,0-.6.2-.6.7,0,.2.1.3.3.4s.4.1.6.1c.7,0,.9-.5.9-1.5,0-.3,0-.6-.2-.8-.2-.3-.5-.4-1-.4v-.2l1.3-1.3h-1.5c-.4,0-.7,0-.7.3h-.2v-1.4h3.6v.5l-1.7,1.7Z"/>
        <path class="cls-8" d="M475.3,125.6c.7,0,1.2.3,1.6.8.4.5.6,1.2.6,2.1s-.2,1.6-.6,2.1c-.4.5-1,.8-1.6.8s-1.2-.3-1.6-.8c-.4-.5-.6-1.2-.6-2.1s.2-1.6.6-2.1c.4-.5,1-.8,1.6-.8ZM476.1,130.2c.1-.5,0-1.2,0-1.9-.1-.8-.3-1.4-.5-1.8s-.4-.6-.7-.6c-.3,0-.5.4-.6.9,0,.5,0,1.1,0,1.9,0,.7.2,1.3.5,1.7.2.4.4.6.7.6.3,0,.5-.3.6-.8Z"/>
        <path class="cls-8" d="M484.2,131c-.2.2-.5.3-.8.3-.2,0-.5,0-.7-.1-.2,0-.3-.2-.4-.4-.2.4-.6.5-1.1.5s-.7,0-.9-.2c-.3-.1-.4-.3-.5-.6,0-.3,0-.6.2-.8.2-.2.5-.4.9-.5.1,0,.3,0,.4,0,.2,0,.3,0,.3,0s.2,0,.2,0c.1,0,.2-.2.1-.4,0-.6-.3-.8-.6-.8-.2,0-.4,0-.5.2s0,.3,0,.5c0,.2-.2.3-.4.3-.1,0-.3,0-.4,0-.2-.1-.3-.3-.2-.6,0-.2.3-.4.5-.5s.5-.1.8-.1c.6,0,1.1.1,1.4.3.3.2.5.6.6,1.1l.2,1.1c0,.4.1.6.2.7,0,.1.2.1.4,0v.2ZM482.2,130c0-.3,0-.6,0-.8,0,0,0,.1-.1.1s-.2,0-.4.1c-.4.1-.6.4-.5.8,0,.2.1.3.3.4.1,0,.3.1.5,0,.3,0,.5-.4.5-.8Z"/>
        <path class="cls-8" d="M491.8,130.1c0,.2,0,.3,0,.4s0,.2.1.3c0,.2.3.3.6.3v.2h-2.6v-.2c.3,0,.4,0,.5-.2,0-.2,0-.4,0-.7,0-.5-.1-.8-.2-1,0-.1,0-.2,0-.3s0-.1,0-.2c0-.1,0-.2-.1-.2,0,0-.2-.2-.4-.2-.4,0-.6.3-.6.9v1c0,.3,0,.5.1.7,0,.2.3.2.6.2v.2h-2.6v-.2c.2,0,.4,0,.5-.2,0,0,0-.1,0-.2s0-.2,0-.2c0,0,0-.2,0-.3v-1c0-.6-.2-.9-.7-.9s-.7.4-.7.9v1c0,.1,0,.2,0,.3,0,0,0,.1,0,.2s0,.2,0,.2c0,0,.2.2.5.2v.2h-2.6v-.2c.3,0,.5,0,.6-.2,0-.2.1-.4.1-.7v-.8c0-.3,0-.5-.1-.7s-.3-.2-.6-.2v-.2c.3,0,.6,0,.9-.2.3-.1.6-.3.8-.5h.2v.6c.3-.4.7-.6,1.3-.6s1.1.2,1.3.8c.3-.5.7-.8,1.3-.8.8,0,1.2.4,1.4,1.4l.2,1.1Z"/>
        <path class="cls-8" d="M494.8,128.3h3v.3h-3v-.3Z"/>
        <path class="cls-8" d="M503.9,125.7v.5c0,.1-.2.3-.3.4,0,.1-.2.4-.4.7-.1.3-.3.6-.4.9s-.2.7-.3,1.1c0,.4-.1.8,0,1.2,0,.6-.2.9-.7.9s-.8-.3-.8-.8,0-.6.2-1c.1-.3.2-.6.4-.9.1-.2.3-.5.5-.8s.4-.5.5-.6.3-.3.5-.5h-2.2c-.4,0-.7,0-.8.3h-.2v-1.4h3.9Z"/>
        <path class="cls-8" d="M505.3,129c-.2,0-.4,0-.6-.2-.2-.1-.2-.3-.2-.5s0-.4.2-.5.4-.2.6-.2.4,0,.6.2c.2.1.2.3.2.5s0,.4-.2.5c-.2.1-.4.2-.6.2ZM505.3,129.9c.2,0,.4,0,.6.2.2.1.2.3.2.5s0,.4-.2.5c-.2.1-.4.2-.6.2s-.4,0-.6-.2-.2-.3-.2-.5,0-.4.2-.5.4-.2.6-.2Z"/>
        <path class="cls-8" d="M508.8,127.9c.6,0,1.1.1,1.5.5.4.3.5.8.5,1.3,0,.6-.3,1-.7,1.3-.4.3-.9.4-1.5.4s-.9-.1-1.3-.3c-.4-.2-.6-.5-.7-.8,0-.3,0-.6,0-.8.2-.2.4-.3.6-.3s.4,0,.6.2c.1.1.2.3.2.5-.4,0-.6.2-.6.7,0,.2.1.3.3.4s.4.1.6.1c.7,0,.9-.5.9-1.5,0-.3,0-.6-.2-.8-.2-.3-.5-.4-1-.4v-.2l1.3-1.3h-1.5c-.4,0-.7,0-.7.3h-.2v-1.4h3.6v.5l-1.7,1.7Z"/>
        <path class="cls-8" d="M513.4,125.6c.7,0,1.2.3,1.6.8.4.5.6,1.2.6,2.1s-.2,1.6-.6,2.1c-.4.5-1,.8-1.6.8s-1.2-.3-1.6-.8c-.4-.5-.6-1.2-.6-2.1s.2-1.6.6-2.1c.4-.5,1-.8,1.6-.8ZM514.2,130.2c.1-.5,0-1.2,0-1.9-.1-.8-.3-1.4-.5-1.8s-.4-.6-.7-.6c-.3,0-.5.4-.6.9,0,.5,0,1.1,0,1.9,0,.7.2,1.3.5,1.7.2.4.4.6.7.6.3,0,.5-.3.6-.8Z"/>
        <path class="cls-8" d="M521.9,128c.4.4.6.9.6,1.4s-.2,1.1-.6,1.4-.9.5-1.4.4c-.4,0-.7-.2-.9-.5v1.2c0,.6.3.9.8.9v.2h-2.8v-.2c.3,0,.5,0,.6-.2,0-.2.1-.4.1-.7v-2.7c0-.3,0-.5-.1-.7s-.3-.2-.6-.2v-.2c.3,0,.6,0,.9-.2.3-.1.6-.3.9-.5h.2v.4c.2-.2.5-.4.8-.4.6,0,1.1,0,1.5.4ZM521.2,130.5c0-.3,0-.7,0-1.2,0-.5-.2-.9-.4-1.1-.2-.3-.4-.4-.6-.3s-.4.2-.5.5c0,.3,0,.7,0,1.2,0,.5.2.9.4,1.1.2.3.4.4.6.3.2,0,.4-.2.5-.5Z"/>
        <path class="cls-8" d="M530.3,130.1c0,.2,0,.3,0,.4s0,.2.1.3c0,.2.3.3.6.3v.2h-2.6v-.2c.3,0,.4,0,.5-.2,0-.2,0-.4,0-.7,0-.5-.1-.8-.2-1,0-.1,0-.2,0-.3s0-.1,0-.2c0-.1,0-.2-.1-.2,0,0-.2-.2-.4-.2-.4,0-.6.3-.6.9v1c0,.3,0,.5.1.7,0,.2.3.2.6.2v.2h-2.6v-.2c.2,0,.4,0,.5-.2,0,0,0-.1,0-.2s0-.2,0-.2c0,0,0-.2,0-.3v-1c0-.6-.2-.9-.7-.9s-.7.4-.7.9v1c0,.1,0,.2,0,.3,0,0,0,.1,0,.2s0,.2,0,.2c0,0,.2.2.5.2v.2h-2.6v-.2c.3,0,.5,0,.6-.2,0-.2.1-.4.1-.7v-.8c0-.3,0-.5-.1-.7s-.3-.2-.6-.2v-.2c.3,0,.6,0,.9-.2.3-.1.6-.3.8-.5h.2v.6c.3-.4.7-.6,1.3-.6s1.1.2,1.3.8c.3-.5.7-.8,1.3-.8.8,0,1.2.4,1.4,1.4l.2,1.1Z"/>
        <path class="cls-8" d="M449.3,139.5c.4.4.6.8.5,1.4,0,.3-.2.6-.5.9-.3.2-.6.4-.9.5-.3,0-.7.1-1.1.1-.5,0-1-.2-1.4-.4s-.7-.5-.7-.9c0-.3,0-.6.2-.8s.4-.3.7-.3c.2,0,.5.1.6.3.2.2.2.3.2.5-.2,0-.4,0-.5.2s-.2.3-.1.5c0,.4.4.6,1,.6.3,0,.6,0,.9-.2s.4-.3.4-.6c0-.2,0-.3,0-.4,0-.1-.1-.2-.3-.4s-.3-.2-.4-.2-.3-.2-.6-.3c0,0,0,0-.1,0-.5-.3-.9-.5-1.1-.6-.5-.4-.7-.8-.7-1.3,0-.6.3-1,.8-1.2s.9-.2,1.3-.2c.2,0,.3,0,.5,0,.2,0,.3,0,.3,0,.3,0,.4.1.5-.2h.2v1.8c.1,0-.1,0-.1,0-.1-.5-.3-.9-.5-1.1-.2-.2-.5-.4-.9-.4-.3,0-.5,0-.7.1s-.3.3-.3.5c0,.2.1.5.4.7.1,0,.3.2.4.2s.3.1.5.2c.2,0,.3.2.4.2.5.3.8.5,1,.6Z"/>
        <path class="cls-8" d="M455,141.8c-.2.4-.5.6-.9.6-.6,0-.9-.2-1-.6-.3.4-.7.6-1.3.6-.4,0-.8-.1-1-.3s-.4-.6-.4-1.1v-.6c0-.1,0-.2,0-.3,0,0,0-.1,0-.2s0-.2,0-.2c0,0-.2-.2-.5-.2v-.2c.3,0,.5,0,.9-.2s.6-.3.8-.5h.2v2.2c0,.6.2.9.7.9.4,0,.6-.3.6-1v-.4c0-.1,0-.2,0-.3,0,0,0-.1,0-.2s0-.2,0-.2c0,0-.2-.2-.5-.2v-.2c.3,0,.5,0,.9-.2s.6-.3.8-.5h.2v2.6c0,.5,0,.7.2.7.1,0,.2,0,.3-.2h.1Z"/>
        <path class="cls-8" d="M460.2,141.1c0,.1,0,.2,0,.3,0,0,0,.1,0,.2,0,.1,0,.2.1.2,0,0,.3.2.5.2v.2h-2.6v-.2c.2,0,.3,0,.4-.1.2-.2.2-.5.1-.8,0-.5-.1-.8-.2-1,0-.1,0-.2,0-.3,0,0,0-.1,0-.2,0,0,0-.2-.1-.2,0,0-.2-.2-.5-.2-.5,0-.7.4-.7,1v1c0,.3,0,.5.1.7,0,.2.3.2.5.2v.2h-2.6v-.2c.3,0,.5,0,.6-.2,0-.2.1-.4.1-.7v-.8c0-.3,0-.5-.1-.7s-.3-.2-.6-.2v-.2c.3,0,.6,0,.9-.2.3-.1.6-.3.9-.5h.2v.6c.3-.4.7-.6,1.3-.6.8,0,1.2.4,1.4,1.4l.2,1.1Z"/>
        <path class="cls-8" d="M465.9,141.8c-.2.4-.5.6-.9.6-.4,0-.7-.1-.9-.4-.3.2-.6.4-1,.4-.6,0-1.1-.2-1.5-.5-.4-.3-.6-.8-.6-1.4s.2-1.1.6-1.4c.4-.4.9-.5,1.5-.4.3,0,.6.2.9.4v-.5c0-.3,0-.5-.1-.7,0-.2-.3-.2-.6-.2v-.2c.3,0,.6,0,.9-.2.3-.1.6-.3.9-.5h.2v4.5c0,.5,0,.7.2.7s.2,0,.3-.2h.1ZM463.9,141.5c0-.3,0-.7,0-1.2s-.2-.9-.4-1.1c-.2-.3-.4-.4-.6-.3-.2,0-.4.2-.5.5s0,.7,0,1.2.2.8.4,1.1c.2.3.4.4.6.3.2,0,.4-.2.5-.5Z"/>
        <path class="cls-8" d="M470.9,142c-.2.2-.5.3-.8.3-.2,0-.5,0-.7-.1-.2,0-.3-.2-.4-.4-.2.4-.6.5-1.1.5s-.7,0-.9-.2c-.3-.1-.4-.3-.5-.6,0-.3,0-.6.2-.8.2-.2.5-.4.9-.5.1,0,.3,0,.4,0,.2,0,.3,0,.3,0s.2,0,.2,0c.1,0,.2-.2.1-.4,0-.6-.3-.8-.6-.8-.2,0-.4,0-.5.2s0,.3,0,.5c0,.2-.2.3-.4.3-.1,0-.3,0-.4,0-.2-.1-.3-.3-.2-.6,0-.2.3-.4.5-.5s.5-.1.8-.1c.6,0,1.1.1,1.4.3.3.2.5.6.6,1.1l.2,1.1c0,.4.1.6.2.7,0,.1.2.1.4,0v.2ZM468.9,141c0-.3,0-.6,0-.8,0,0,0,.1-.1.1s-.2,0-.4.1c-.4.1-.6.4-.5.8,0,.2.1.3.3.4.1,0,.3.1.5,0,.3,0,.5-.4.5-.8Z"/>
        <path class="cls-8" d="M473.4,138.7h1.4v.2c-.4,0-.6.2-.7.5l-1.2,2.9c0,.2-.1.3-.2.4,0,0,0,.2-.2.4,0,.2-.1.3-.2.4,0,0-.1.2-.2.3s-.2.2-.3.3c-.2.1-.4.2-.6.2s-.6-.1-.7-.4c0-.2,0-.4,0-.6.1-.2.2-.3.4-.4.1.3.4.4.7.4.4,0,.7-.4.9-.9l-1.6-3.1c-.1-.3-.4-.4-.6-.4v-.2h2.3v.2c-.4,0-.4.1-.3.5l.7,1.5.6-1.5c0-.1,0-.3,0-.3,0-.2-.2-.2-.5-.2v-.2Z"/>
        <path class="cls-8" d="M478.6,136.7h.3v5.6h-.3v-5.6Z"/>
        <path class="cls-8" d="M485,141.1c0,.3,0,.5.1.7,0,.2.3.2.6.2v.2h-2.7v-.2c.3,0,.5,0,.6-.2,0-.2.1-.4.1-.7v-2.6c0-.3,0-.5-.1-.7,0-.2-.3-.2-.6-.2v-.2l1.8-.8h.2v4.5Z"/>
        <path class="cls-8" d="M488.2,141.1c0,.3,0,.5.1.7,0,.2.3.2.6.2v.2h-2.7v-.2c.3,0,.5,0,.6-.2,0-.2.1-.4.1-.7v-2.6c0-.3,0-.5-.1-.7,0-.2-.3-.2-.6-.2v-.2l1.8-.8h.2v4.5Z"/>
        <path class="cls-8" d="M495.7,142c-.2.2-.5.3-.8.3-.2,0-.5,0-.7-.1-.2,0-.3-.2-.4-.4-.2.4-.6.5-1.1.5s-.7,0-.9-.2c-.3-.1-.4-.3-.5-.6,0-.3,0-.6.2-.8.2-.2.5-.4.9-.5.1,0,.3,0,.4,0,.2,0,.3,0,.3,0s.2,0,.2,0c.1,0,.2-.2.1-.4,0-.6-.3-.8-.6-.8-.2,0-.4,0-.5.2s0,.3,0,.5c0,.2-.2.3-.4.3-.1,0-.3,0-.4,0-.2-.1-.3-.3-.2-.6,0-.2.3-.4.5-.5s.5-.1.8-.1c.6,0,1.1.1,1.4.3.3.2.5.6.6,1.1l.2,1.1c0,.4.1.6.2.7,0,.1.2.1.4,0v.2ZM493.7,141c0-.3,0-.6,0-.8,0,0,0,.1-.1.1s-.2,0-.4.1c-.4.1-.6.4-.5.8,0,.2.1.3.3.4.1,0,.3.1.5,0,.3,0,.5-.4.5-.8Z"/>
        <path class="cls-8" d="M503.4,141.1c0,.2,0,.3,0,.4s0,.2.1.3c0,.2.3.3.6.3v.2h-2.6v-.2c.3,0,.4,0,.5-.2,0-.2,0-.4,0-.7,0-.5-.1-.8-.2-1,0-.1,0-.2,0-.3s0-.1,0-.2c0-.1,0-.2-.1-.2,0,0-.2-.2-.4-.2-.4,0-.6.3-.6.9v1c0,.3,0,.5.1.7,0,.2.3.2.6.2v.2h-2.6v-.2c.2,0,.4,0,.5-.2,0,0,0-.1,0-.2s0-.2,0-.2c0,0,0-.2,0-.3v-1c0-.6-.2-.9-.7-.9s-.7.4-.7.9v1c0,.1,0,.2,0,.3,0,0,0,.1,0,.2s0,.2,0,.2c0,0,.2.2.5.2v.2h-2.6v-.2c.3,0,.5,0,.6-.2,0-.2.1-.4.1-.7v-.8c0-.3,0-.5-.1-.7s-.3-.2-.6-.2v-.2c.3,0,.6,0,.9-.2.3-.1.6-.3.8-.5h.2v.6c.3-.4.7-.6,1.3-.6s1.1.2,1.3.8c.3-.5.7-.8,1.3-.8.8,0,1.2.4,1.4,1.4l.2,1.1Z"/>
        <path class="cls-8" d="M506.3,139.3h3v.3h-3v-.3Z"/>
        <path class="cls-8" d="M512.4,138.8c1.1-.4,1.9-.3,2.6,0,.6.4.9,1,.8,1.8,0,.6-.3,1-.7,1.3-.4.3-.9.5-1.4.5s-.9-.1-1.3-.3c-.4-.2-.6-.5-.7-.8,0-.3,0-.6,0-.8.2-.2.4-.3.7-.3s.4,0,.6.2c.1.1.2.3.2.5-.2,0-.3,0-.4.2-.1.1-.1.3-.1.6,0,.2.1.3.3.4.2,0,.4.1.6.1.6,0,1-.5.9-1.5,0,0,0-.2,0-.3,0-.2-.1-.4-.2-.6-.1-.2-.3-.4-.6-.5-.3,0-.7-.1-1.2,0h-.2l.2-2.5h2.3c.4,0,.7-.1.8-.3h.2v1.4h-3v1.1Z"/>
        <path class="cls-8" d="M521.9,139c.4.4.6.9.6,1.4s-.2,1.1-.6,1.4-.9.5-1.4.4c-.4,0-.7-.2-.9-.5v1.2c0,.6.3.9.8.9v.2h-2.8v-.2c.3,0,.5,0,.6-.2,0-.2.1-.4.1-.7v-2.7c0-.3,0-.5-.1-.7s-.3-.2-.6-.2v-.2c.3,0,.6,0,.9-.2.3-.1.6-.3.9-.5h.2v.4c.2-.2.5-.4.8-.4.6,0,1.1,0,1.5.4ZM521.2,141.5c0-.3,0-.7,0-1.2,0-.5-.2-.9-.4-1.1-.2-.3-.4-.4-.6-.3s-.4.2-.5.5c0,.3,0,.7,0,1.2,0,.5.2.9.4,1.1.2.3.4.4.6.3.2,0,.4-.2.5-.5Z"/>
        <path class="cls-8" d="M530.3,141.1c0,.2,0,.3,0,.4s0,.2.1.3c0,.2.3.3.6.3v.2h-2.6v-.2c.3,0,.4,0,.5-.2,0-.2,0-.4,0-.7,0-.5-.1-.8-.2-1,0-.1,0-.2,0-.3s0-.1,0-.2c0-.1,0-.2-.1-.2,0,0-.2-.2-.4-.2-.4,0-.6.3-.6.9v1c0,.3,0,.5.1.7,0,.2.3.2.6.2v.2h-2.6v-.2c.2,0,.4,0,.5-.2,0,0,0-.1,0-.2s0-.2,0-.2c0,0,0-.2,0-.3v-1c0-.6-.2-.9-.7-.9s-.7.4-.7.9v1c0,.1,0,.2,0,.3,0,0,0,.1,0,.2s0,.2,0,.2c0,0,.2.2.5.2v.2h-2.6v-.2c.3,0,.5,0,.6-.2,0-.2.1-.4.1-.7v-.8c0-.3,0-.5-.1-.7s-.3-.2-.6-.2v-.2c.3,0,.6,0,.9-.2.3-.1.6-.3.8-.5h.2v.6c.3-.4.7-.6,1.3-.6s1.1.2,1.3.8c.3-.5.7-.8,1.3-.8.8,0,1.2.4,1.4,1.4l.2,1.1Z"/>
      </g>
      <g>
        <path class="cls-4" d="M395.4,80.8v2.1h-.3c0-.2-.1-.2-.3-.2s-.4,0-.8.1c-.3,0-.7.1-.9.1-1,0-1.9-.3-2.5-.9-.7-.6-1-1.4-1-2.3s.3-1.7.9-2.3c.6-.6,1.5-.9,2.5-.9s.6,0,.9.1c.4,0,.6.1.8.1s.3,0,.3-.2h.2v2c.1,0-.1,0-.1,0-.2-1.2-.9-1.8-2.1-1.7-.5,0-1,.3-1.3.8-.3.5-.5,1.2-.5,2.1s.2,1.6.5,2.1c.3.5.8.8,1.3.8,1.1,0,1.8-.5,2.1-1.7h.2Z"/>
        <path class="cls-4" d="M401.1,82.5c-.2.2-.5.4-.9.3-.3,0-.5,0-.8-.1-.2-.1-.4-.3-.4-.4-.3.4-.7.6-1.3.6s-.8,0-1-.2c-.3-.1-.5-.4-.5-.7,0-.4,0-.7.2-.9.2-.3.6-.5,1.1-.6.1,0,.3,0,.5,0,.2,0,.3,0,.4,0s.2,0,.3,0c.2,0,.2-.2.2-.4-.1-.6-.3-.9-.7-.9-.3,0-.5,0-.6.3-.1.2,0,.4.1.5-.1.2-.2.3-.4.3-.2,0-.3,0-.4,0-.3-.1-.3-.4-.2-.7,0-.3.3-.5.6-.6.3-.1.6-.2.9-.2.7,0,1.2.1,1.6.4.3.3.5.7.6,1.2l.2,1.3c0,.5.1.7.2.8.1.1.3.1.5,0v.2ZM398.9,81.4c0-.4,0-.7,0-.9,0,0,0,.1-.2.2,0,0-.2,0-.5.2-.4.1-.7.5-.6.9,0,.2.1.4.3.5.2.1.3.1.5,0,.4,0,.6-.4.5-.9Z"/>
        <path class="cls-4" d="M404.8,82.7c-.4.2-.9.2-1.5.2-.4,0-.8-.1-1.2-.3-.4-.2-.6-.4-.7-.7,0-.3,0-.5.2-.7.2-.2.4-.3.7-.3.4,0,.6.4.7.8-.3,0-.4.2-.4.4,0,.2.3.3.8.4.2,0,.5,0,.6-.1.2,0,.3-.2.3-.3,0-.2,0-.4-.2-.5-.2-.1-.3-.2-.6-.4,0,0-.2,0-.2-.1-.2-.1-.4-.2-.5-.3-.1,0-.2-.2-.4-.3-.3-.3-.5-.6-.4-1,0-.3.1-.5.3-.7.4-.3.9-.4,1.5-.3.2,0,.4,0,.5.1.2,0,.2,0,.3-.1h.2v1.4c0,0-.1,0-.1,0,0-.4-.2-.6-.3-.8-.1-.2-.3-.3-.5-.3-.3,0-.5,0-.6.3,0,0,0,.1,0,.2,0,0,0,.1.1.2,0,0,.1,0,.3.2,0,0,.1,0,.2,0,0,0,.1,0,.2.1,0,0,.1,0,.2.1.1,0,.3.2.4.2,0,0,.1,0,.2.1.2,0,.3.1.4.3.1.1.2.2.3.4,0,0,0,.1,0,.2,0,.1,0,.3,0,.5,0,.4-.3.7-.8.8Z"/>
        <path class="cls-4" d="M411.2,81.5c0,.1,0,.3,0,.3,0,0,0,.1,0,.3,0,.1,0,.2.1.3.1.1.3.2.6.2v.2h-2.9v-.2c.2,0,.4,0,.5-.1.2-.2.2-.5.1-.9,0-.5-.1-.9-.2-1.2,0-.1,0-.2,0-.3,0,0,0-.2,0-.3,0-.1,0-.2-.1-.2,0-.1-.3-.2-.5-.2-.5,0-.8.4-.8,1.1v1.1c0,.3,0,.6.1.8,0,.2.3.3.6.3v.2h-3v-.2c.3,0,.5,0,.6-.3.1-.2.2-.4.2-.8v-3c0-.3,0-.6-.2-.8-.1-.2-.3-.3-.6-.3v-.3c.3,0,.6,0,1-.2.4-.1.7-.3,1-.5h.2v2.8c.3-.5.8-.7,1.4-.7.9,0,1.4.5,1.6,1.6l.2,1.3Z"/>
        <path class="cls-4" d="M418.8,79.1c.1.2.1.5,0,.8,0,.2-.3.4-.5.5-.2,0-.4,0-.6,0,.1-.4,0-.7-.3-.8-.2,0-.4,0-.5,0-.1,0-.2.2-.2.4v1.5c0,.3,0,.6.1.8,0,.2.3.3.6.3v.2h-3v-.2c.3,0,.5,0,.6-.3.1-.2.1-.4.1-.8v-.9c0-.3,0-.6-.1-.8,0-.2-.3-.3-.6-.3v-.2c.3,0,.6,0,1-.2.4-.1.7-.3,1-.5h.2v.8c.3-.6.8-.9,1.4-.8.3,0,.5.2.7.4Z"/>
        <path class="cls-4" d="M423.8,81.5c-.2.4-.4.7-.8,1-.3.3-.8.4-1.3.4s-1.2-.2-1.6-.6c-.4-.4-.7-.8-.7-1.4,0-.7.1-1.3.6-1.7.5-.4,1-.6,1.7-.6s1.1.2,1.5.5c.4.3.5.8.5,1.4l-2.8.5c0,.4.3.6.6.8.3.2.7.2,1.1.2.4,0,.7-.2,1-.5.1,0,.2.1.2.1ZM420.9,79.4c-.1.3-.2.7-.1,1.1l1.5-.2c0-.9-.2-1.4-.8-1.4-.3,0-.5.2-.6.5Z"/>
        <path class="cls-4" d="M429.8,78.7h1.6v.2c-.4,0-.6.2-.8.6l-1.3,3.2h-.6l-1-2.6-1.1,2.6h-.6l-1.4-3.2c0-.2-.2-.4-.3-.5,0,0-.2-.1-.4-.1v-.2h2.6v.2c-.4,0-.5.1-.4.6l.8,1.8.7-1.6v-.3c-.2-.2-.2-.3-.3-.3,0-.1-.3-.3-.5-.3v-.2h2.6v.2c-.4,0-.6.1-.4.6l.6,1.8.8-1.8c0-.2,0-.4,0-.5,0,0-.2-.1-.5-.1v-.2Z"/>
        <path class="cls-4" d="M436.6,82.5c-.2.2-.5.4-.9.3-.3,0-.5,0-.8-.1-.2-.1-.4-.3-.4-.4-.3.4-.7.6-1.3.6s-.8,0-1.1-.2c-.3-.1-.5-.4-.5-.7,0-.4,0-.7.2-.9.2-.3.6-.5,1.1-.6.1,0,.3,0,.5,0,.2,0,.3,0,.4,0s.2,0,.2,0c.2,0,.2-.2.2-.4-.1-.6-.3-.9-.7-.9-.3,0-.5,0-.6.3-.1.2,0,.4.1.5-.1.2-.2.3-.4.3-.2,0-.3,0-.4,0-.3-.1-.3-.4-.2-.7,0-.3.3-.5.6-.6.3-.1.6-.2.9-.2.7,0,1.2.1,1.6.4.3.3.5.7.6,1.2l.2,1.3c0,.5.1.7.2.8.1.1.3.1.5,0v.2ZM434.4,81.4c0-.4,0-.7,0-.9,0,0,0,.1-.2.2,0,0-.2,0-.5.2-.4.1-.7.5-.6.9,0,.2.1.4.3.5.2.1.3.1.5,0,.4,0,.6-.4.5-.9Z"/>
        <path class="cls-4" d="M441.3,79.1c.1.2.1.5,0,.8,0,.2-.3.4-.5.5-.2,0-.4,0-.6,0,.1-.4,0-.7-.3-.8-.2,0-.4,0-.5,0-.1,0-.2.2-.2.4v1.5c0,.3,0,.6.1.8,0,.2.3.3.6.3v.2h-3v-.2c.3,0,.5,0,.6-.3.1-.2.1-.4.1-.8v-.9c0-.3,0-.6-.1-.8,0-.2-.3-.3-.6-.3v-.2c.3,0,.6,0,1-.2.4-.1.7-.3,1-.5h.2v.8c.3-.6.8-.9,1.4-.8.3,0,.5.2.7.4Z"/>
        <path class="cls-4" d="M447.2,82.2c-.2.4-.6.7-1,.7-.5,0-.8-.1-1-.4-.3.3-.7.4-1.1.4-.7,0-1.2-.2-1.7-.6-.4-.4-.7-.9-.7-1.5s.2-1.2.7-1.6c.4-.4,1-.6,1.7-.5.4,0,.7.2,1,.5v-.6c0-.3,0-.6-.2-.8-.1-.2-.3-.3-.6-.3v-.3c.3,0,.6,0,1-.2.4-.1.7-.3,1-.5h.2v5c0,.5,0,.8.2.8.1,0,.3,0,.4-.2h.2ZM444.9,81.9c0-.3,0-.8,0-1.3,0-.5-.2-1-.5-1.2-.2-.3-.4-.4-.7-.4-.3,0-.5.2-.5.6,0,.3,0,.8,0,1.3,0,.5.2,1,.5,1.2.2.3.4.4.7.4.3,0,.5-.2.5-.6Z"/>
      </g>
      <g>
        <path class="cls-6" d="M312.3,80.2l-1.4.4c-1.5.4-2.6,1.6-2.9,3.1l-.3,1.4-.3-1.4c-.3-1.5-1.4-2.7-2.9-3.1l-1.4-.4,1.4-.4c1.5-.4,2.6-1.6,2.9-3l.2-1.2.2,1.2c.3,1.5,1.4,2.7,2.9,3l1.4.4Z"/>
        <rect class="cls-6" x="318" y="80.1" width="64" height=".2"/>
        <g>
          <path class="cls-6" d="M523.8,80.2l1.4.4c1.5.4,2.6,1.6,2.9,3.1l.3,1.4.3-1.4c.3-1.5,1.4-2.7,2.9-3.1l1.4-.4-1.4-.4c-1.5-.4-2.6-1.6-2.9-3l-.2-1.2-.2,1.2c-.3,1.5-1.4,2.7-2.9,3l-1.4.4Z"/>
          <rect class="cls-6" x="454.1" y="80.1" width="64" height=".2"/>
        </g>
      </g>
      <g>
        <g>
          <g>
            <path class="cls-9" d="M317.3,103.5c0,.3,0,.6.1.7,0,.2.3.2.6.2v.2h-2.9v-.2c.3,0,.5,0,.6-.2,0-.2.1-.4.1-.7v-2.7c0-.3,0-.5-.1-.7,0-.2-.3-.2-.6-.2v-.2l1.9-.8h.2v4.8Z"/>
            <path class="cls-9" d="M313.2,100.9c.3.3.5.6.4,1,0,.2-.1.4-.3.6-.3.3-.8.5-1.3.5v.7h-.2v-.7c-.4,0-.8-.1-1.1-.3s-.5-.4-.5-.7c0-.3,0-.5.1-.6s.3-.2.6-.2c.2,0,.3,0,.5.2.1.1.2.2.2.4-.1,0-.3,0-.4.1s-.1.2,0,.4c0,.3.3.4.7.4v-1.6h0c-.4-.2-.7-.4-.8-.5-.3-.3-.5-.6-.5-1,0-.4.2-.7.5-.8.3-.2.5-.2.9-.2v-.7h.2v.7h0c.1,0,.2,0,.3,0s.2,0,.3,0c.2,0,.3,0,.4-.1h.1v1.4c0,0,0,0,0,0,0-.4-.2-.6-.3-.8-.1-.2-.4-.3-.6-.3,0,0,0,0,0,0v1.3c.3.2.5.2.5.3.4.2.6.3.7.4ZM311.8,100.1v-1.1c-.3,0-.5.2-.5.5,0,.2.1.4.5.6ZM312.6,101.8c-.1-.1-.3-.3-.6-.4v1.4c.2,0,.4,0,.5-.2s.2-.2.2-.4c0-.2,0-.4-.1-.5Z"/>
          </g>
          <path class="cls-6" d="M314.6,112.2c-5.8,0-10.4-4.7-10.4-10.4s4.7-10.4,10.4-10.4,10.4,4.7,10.4,10.4-4.7,10.4-10.4,10.4ZM314.6,91.6c-5.6,0-10.2,4.6-10.2,10.2s4.6,10.2,10.2,10.2,10.2-4.6,10.2-10.2-4.6-10.2-10.2-10.2Z"/>
        </g>
        <g>
          <path class="cls-9" d="M342.2,101.1c.7,0,1.2.2,1.5.5.4.3.6.8.5,1.4,0,.6-.3,1-.7,1.4-.5.3-1,.5-1.6.5s-.9-.1-1.3-.3c-.4-.2-.7-.5-.8-.9,0-.3,0-.6.1-.9.2-.2.4-.3.7-.3s.5,0,.6.2c.1.2.2.3.2.5-.4,0-.7.2-.6.7,0,.2.1.3.3.5s.4.2.6.1c.7,0,1-.6,1-1.6,0-.3,0-.6-.3-.9-.2-.3-.6-.5-1.1-.5v-.2l1.3-1.4h-1.6c-.5,0-.7,0-.8.4h-.2v-1.5h3.9v.5l-1.8,1.9Z"/>
          <path class="cls-9" d="M338.4,100.5c.3.3.5.6.4,1,0,.2-.1.4-.3.6-.3.3-.8.5-1.3.5v.7h-.2v-.7c-.4,0-.8-.1-1.1-.3s-.5-.4-.5-.7c0-.3,0-.5.1-.6s.3-.2.6-.2c.2,0,.3,0,.5.2.1.1.2.2.2.4-.1,0-.3,0-.4.1s-.1.2,0,.4c0,.3.3.4.7.4v-1.6h0c-.4-.2-.7-.4-.8-.5-.3-.3-.5-.6-.5-1,0-.4.2-.7.5-.8.3-.2.5-.2.9-.2v-.7h.2v.7h0c.1,0,.2,0,.3,0s.2,0,.3,0c.2,0,.3,0,.4-.1h.1v1.4c0,0,0,0,0,0,0-.4-.2-.6-.3-.8-.1-.2-.4-.3-.6-.3,0,0,0,0,0,0v1.3c.3.2.5.2.5.3.4.2.6.3.7.4ZM337,99.7v-1.1c-.3,0-.5.2-.5.5,0,.2.1.4.5.6ZM337.8,101.3c-.1-.1-.3-.3-.6-.4v1.4c.2,0,.4,0,.5-.2s.2-.2.2-.4c0-.2,0-.4-.1-.5Z"/>
          <path class="cls-6" d="M340.6,112.2c-5.8,0-10.4-4.7-10.4-10.4s4.7-10.4,10.4-10.4,10.4,4.7,10.4,10.4-4.7,10.4-10.4,10.4ZM340.6,91.6c-5.6,0-10.2,4.6-10.2,10.2s4.6,10.2,10.2,10.2,10.2-4.6,10.2-10.2-4.6-10.2-10.2-10.2Z"/>
        </g>
        <g>
          <path class="cls-9" d="M366.5,101c1.1-.4,2.1-.4,2.7,0,.7.4,1,1,.9,1.9,0,.6-.3,1-.8,1.4-.4.3-1,.5-1.5.5s-.9-.1-1.3-.3c-.4-.2-.7-.5-.8-.9,0-.3,0-.6,0-.9.2-.2.4-.3.7-.3s.5,0,.6.2c.1.2.2.3.2.5-.2,0-.4,0-.5.2-.1.1-.2.3-.1.6,0,.2.1.3.3.5.2.1.4.2.6.1.7,0,1-.6,1-1.6,0,0,0-.2,0-.3,0-.2-.1-.5-.2-.7-.1-.2-.4-.4-.7-.5-.3-.1-.8-.1-1.3,0h-.3l.2-2.7h2.4c.4,0,.7-.1.8-.4h.2v1.5h-3.2v1.1Z"/>
          <path class="cls-9" d="M364.2,100.5c.3.3.5.6.4,1,0,.2-.1.4-.3.6-.3.3-.8.5-1.3.5v.7h-.2v-.7c-.4,0-.8-.1-1.1-.3s-.5-.4-.5-.7c0-.3,0-.5.1-.6s.3-.2.6-.2c.2,0,.3,0,.5.2.1.1.2.2.2.4-.1,0-.3,0-.4.1s-.1.2,0,.4c0,.3.3.4.7.4v-1.6h0c-.4-.2-.7-.4-.8-.5-.3-.3-.5-.6-.5-1,0-.4.2-.7.5-.8.3-.2.5-.2.9-.2v-.7h.2v.7h0c.1,0,.2,0,.3,0s.2,0,.3,0c.2,0,.3,0,.4-.1h.1v1.4c0,0,0,0,0,0,0-.4-.2-.6-.3-.8-.1-.2-.4-.3-.6-.3,0,0,0,0,0,0v1.3c.3.2.5.2.5.3.4.2.6.3.7.4ZM362.8,99.7v-1.1c-.3,0-.5.2-.5.5,0,.2.1.4.5.6ZM363.6,101.3c-.1-.1-.3-.3-.6-.4v1.4c.2,0,.4,0,.5-.2s.2-.2.2-.4c0-.2,0-.4-.1-.5Z"/>
          <path class="cls-6" d="M366.6,112.2c-5.8,0-10.4-4.7-10.4-10.4s4.7-10.4,10.4-10.4,10.4,4.7,10.4,10.4-4.7,10.4-10.4,10.4ZM366.6,91.6c-5.6,0-10.2,4.6-10.2,10.2s4.6,10.2,10.2,10.2,10.2-4.6,10.2-10.2-4.6-10.2-10.2-10.2Z"/>
        </g>
        <g>
          <path class="cls-9" d="M395.8,98.7v.5c0,.1-.2.3-.3.5,0,.2-.2.4-.4.7-.2.3-.3.6-.4,1-.1.3-.2.7-.3,1.1,0,.4-.1.9,0,1.3,0,.6-.2,1-.7,1s-.8-.3-.8-.9,0-.7.2-1c.1-.4.2-.7.4-.9.1-.3.3-.5.6-.8s.4-.5.6-.7.3-.3.5-.5h-2.3c-.5,0-.7,0-.8.4h-.2v-1.5h4.2Z"/>
          <path class="cls-9" d="M390,100.5c.3.3.5.6.4,1,0,.2-.1.4-.3.6-.3.3-.8.5-1.3.5v.7h-.2v-.7c-.4,0-.8-.1-1.1-.3s-.5-.4-.5-.7c0-.3,0-.5.1-.6s.3-.2.6-.2c.2,0,.3,0,.5.2.1.1.2.2.2.4-.1,0-.3,0-.4.1s-.1.2,0,.4c0,.3.3.4.7.4v-1.6h0c-.4-.2-.7-.4-.8-.5-.3-.3-.5-.6-.5-1,0-.4.2-.7.5-.8.3-.2.5-.2.9-.2v-.7h.2v.7h0c.1,0,.2,0,.3,0s.2,0,.3,0c.2,0,.3,0,.4-.1h.1v1.4c0,0,0,0,0,0,0-.4-.2-.6-.3-.8-.1-.2-.4-.3-.6-.3,0,0,0,0,0,0v1.3c.3.2.5.2.5.3.4.2.6.3.7.4ZM388.6,99.7v-1.1c-.3,0-.5.2-.5.5,0,.2.1.4.5.6ZM389.4,101.3c-.1-.1-.3-.3-.6-.4v1.4c.2,0,.4,0,.5-.2s.2-.2.2-.4c0-.2,0-.4-.1-.5Z"/>
          <path class="cls-6" d="M392.6,112.2c-5.8,0-10.4-4.7-10.4-10.4s4.7-10.4,10.4-10.4,10.4,4.7,10.4,10.4-4.7,10.4-10.4,10.4ZM392.6,91.6c-5.6,0-10.2,4.6-10.2,10.2s4.6,10.2,10.2,10.2,10.2-4.6,10.2-10.2-4.6-10.2-10.2-10.2Z"/>
        </g>
        <g>
          <g>
            <path class="cls-9" d="M444.2,103.5c0,.3,0,.6.1.7,0,.2.3.2.6.2v.2h-2.9v-.2c.3,0,.5,0,.6-.2,0-.2.1-.4.1-.7v-2.7c0-.3,0-.5-.1-.7,0-.2-.3-.2-.6-.2v-.2l1.9-.8h.2v4.8Z"/>
            <path class="cls-9" d="M449.6,102.6v2.1h-4.2c0-.5,0-1,.3-1.4.2-.4.5-.8.9-1.1.5-.3.8-.6,1-.9.2-.3.3-.5.4-.8.1-.4.1-.7,0-1-.1-.3-.3-.5-.6-.5-.2,0-.4,0-.6.2-.2.1-.2.3-.3.5,0,.5.2.8.6.8,0,.2,0,.4-.2.5-.1.1-.3.2-.6.2s-.5-.1-.7-.3c-.2-.2-.2-.5-.1-.9,0-.4.3-.7.7-.9.4-.2.8-.3,1.2-.3s1.1.1,1.5.4c.4.3.6.7.6,1.2,0,.4-.2.8-.4,1.1-.1.1-.3.2-.5.4-.2.1-.3.2-.5.3-.1,0-.3.1-.5.3-.3.1-.5.2-.6.3-.1,0-.3.2-.5.3-.4.2-.6.5-.7.8h1.9c.4,0,.7,0,.9-.2.2-.1.4-.4.5-.7h.2Z"/>
          </g>
          <path class="cls-9" d="M440.4,100.5c.3.3.5.6.4,1,0,.2-.1.4-.3.6-.3.3-.8.5-1.3.5v.7h-.2v-.7c-.4,0-.8-.1-1.1-.3s-.5-.4-.5-.7c0-.3,0-.5.1-.6s.3-.2.6-.2c.2,0,.3,0,.5.2.1.1.2.2.2.4-.1,0-.3,0-.4.1s-.1.2,0,.4c0,.3.3.4.7.4v-1.6h0c-.4-.2-.7-.4-.8-.5-.3-.3-.5-.6-.5-1,0-.4.2-.7.5-.8.3-.2.5-.2.9-.2v-.7h.2v.7h0c.1,0,.2,0,.3,0s.2,0,.3,0c.2,0,.3,0,.4-.1h.1v1.4c0,0,0,0,0,0,0-.4-.2-.6-.3-.8-.1-.2-.4-.3-.6-.3,0,0,0,0,0,0v1.3c.3.2.5.2.5.3.4.2.6.3.7.4ZM438.9,99.7v-1.1c-.3,0-.5.2-.5.5,0,.2.1.4.5.6ZM439.8,101.3c-.1-.1-.3-.3-.6-.4v1.4c.2,0,.4,0,.5-.2s.2-.2.2-.4c0-.2,0-.4-.1-.5Z"/>
          <path class="cls-6" d="M444.6,112.2c-5.8,0-10.4-4.7-10.4-10.4s4.7-10.4,10.4-10.4,10.4,4.7,10.4,10.4-4.7,10.4-10.4,10.4ZM444.6,91.6c-5.6,0-10.2,4.6-10.2,10.2s4.6,10.2,10.2,10.2,10.2-4.6,10.2-10.2-4.6-10.2-10.2-10.2Z"/>
        </g>
        <g>
          <g>
            <path class="cls-9" d="M470.5,103.5c0,.3,0,.6.1.7,0,.2.3.2.6.2v.2h-2.9v-.2c.3,0,.5,0,.6-.2,0-.2.1-.4.1-.7v-2.7c0-.3,0-.5-.1-.7,0-.2-.3-.2-.6-.2v-.2l1.9-.8h.2v4.8Z"/>
            <path class="cls-9" d="M472.5,101c1.1-.4,2.1-.4,2.7,0,.7.4,1,1,.9,1.9,0,.6-.3,1-.8,1.4-.4.3-1,.5-1.5.5s-.9-.1-1.3-.3c-.4-.2-.7-.5-.8-.9,0-.3,0-.6,0-.9.2-.2.4-.3.7-.3s.5,0,.6.2c.1.2.2.3.2.5-.2,0-.4,0-.5.2-.1.1-.2.3-.1.6,0,.2.1.3.3.5.2.1.4.2.6.1.7,0,1-.6,1-1.6,0,0,0-.2,0-.3,0-.2-.1-.5-.2-.7-.1-.2-.4-.4-.7-.5-.3-.1-.8-.1-1.3,0h-.3l.2-2.7h2.4c.4,0,.7-.1.8-.4h.2v1.5h-3.2v1.1Z"/>
          </g>
          <path class="cls-9" d="M466.7,100.5c.3.3.5.6.4,1,0,.2-.1.4-.3.6-.3.3-.8.5-1.3.5v.7h-.2v-.7c-.4,0-.8-.1-1.1-.3s-.5-.4-.5-.7c0-.3,0-.5.1-.6s.3-.2.6-.2c.2,0,.3,0,.5.2.1.1.2.2.2.4-.1,0-.3,0-.4.1s-.1.2,0,.4c0,.3.3.4.7.4v-1.6h0c-.4-.2-.7-.4-.8-.5-.3-.3-.5-.6-.5-1,0-.4.2-.7.5-.8.3-.2.5-.2.9-.2v-.7h.2v.7h0c.1,0,.2,0,.3,0s.2,0,.3,0c.2,0,.3,0,.4-.1h.1v1.4c0,0,0,0,0,0,0-.4-.2-.6-.3-.8-.1-.2-.4-.3-.6-.3,0,0,0,0,0,0v1.3c.3.2.5.2.5.3.4.2.6.3.7.4ZM465.3,99.7v-1.1c-.3,0-.5.2-.5.5,0,.2.1.4.5.6ZM466.1,101.3c-.1-.1-.3-.3-.6-.4v1.4c.2,0,.4,0,.5-.2s.2-.2.2-.4c0-.2,0-.4-.1-.5Z"/>
          <path class="cls-6" d="M470.6,112.2c-5.8,0-10.4-4.7-10.4-10.4s4.7-10.4,10.4-10.4,10.4,4.7,10.4,10.4-4.7,10.4-10.4,10.4ZM470.6,91.6c-5.6,0-10.2,4.6-10.2,10.2s4.6,10.2,10.2,10.2,10.2-4.6,10.2-10.2-4.6-10.2-10.2-10.2Z"/>
        </g>
        <g>
          <g>
            <path class="cls-9" d="M496.5,103.5c0,.3,0,.6.1.7,0,.2.3.2.6.2v.2h-2.9v-.2c.3,0,.5,0,.6-.2,0-.2.1-.4.1-.7v-2.7c0-.3,0-.5-.1-.7,0-.2-.3-.2-.6-.2v-.2l1.9-.8h.2v4.8Z"/>
            <path class="cls-9" d="M501.6,98.7v.5c0,.1-.2.3-.3.5,0,.2-.2.4-.4.7-.2.3-.3.6-.4,1-.1.3-.2.7-.3,1.1,0,.4-.1.9,0,1.3,0,.6-.2,1-.7,1s-.8-.3-.8-.9,0-.7.2-1c.1-.4.2-.7.4-.9.1-.3.3-.5.6-.8s.4-.5.6-.7.3-.3.5-.5h-2.3c-.5,0-.7,0-.8.4h-.2v-1.5h4.2Z"/>
          </g>
          <path class="cls-9" d="M492.7,100.5c.3.3.5.6.4,1,0,.2-.1.4-.3.6-.3.3-.8.5-1.3.5v.7h-.2v-.7c-.4,0-.8-.1-1.1-.3s-.5-.4-.5-.7c0-.3,0-.5.1-.6s.3-.2.6-.2c.2,0,.3,0,.5.2.1.1.2.2.2.4-.1,0-.3,0-.4.1s-.1.2,0,.4c0,.3.3.4.7.4v-1.6h0c-.4-.2-.7-.4-.8-.5-.3-.3-.5-.6-.5-1,0-.4.2-.7.5-.8.3-.2.5-.2.9-.2v-.7h.2v.7h0c.1,0,.2,0,.3,0s.2,0,.3,0c.2,0,.3,0,.4-.1h.1v1.4c0,0,0,0,0,0,0-.4-.2-.6-.3-.8-.1-.2-.4-.3-.6-.3,0,0,0,0,0,0v1.3c.3.2.5.2.5.3.4.2.6.3.7.4ZM491.3,99.7v-1.1c-.3,0-.5.2-.5.5,0,.2.1.4.5.6ZM492.1,101.3c-.1-.1-.3-.3-.6-.4v1.4c.2,0,.4,0,.5-.2s.2-.2.2-.4c0-.2,0-.4-.1-.5Z"/>
          <path class="cls-6" d="M496.6,112.2c-5.8,0-10.4-4.7-10.4-10.4s4.7-10.4,10.4-10.4,10.4,4.7,10.4,10.4-4.7,10.4-10.4,10.4ZM496.6,91.6c-5.6,0-10.2,4.6-10.2,10.2s4.6,10.2,10.2,10.2,10.2-4.6,10.2-10.2-4.6-10.2-10.2-10.2Z"/>
        </g>
        <g>
          <g>
            <path class="cls-4" d="M523.9,102.6v2.1h-4.2c0-.5,0-1,.3-1.4.2-.4.5-.8.9-1.1.5-.3.8-.6,1-.9.2-.3.3-.5.4-.8.1-.4.1-.7,0-1-.1-.3-.3-.5-.6-.5-.2,0-.4,0-.6.2s-.2.3-.3.5c0,.5.2.8.6.8,0,.2,0,.4-.2.5-.1.1-.3.2-.6.2s-.5-.1-.7-.3c-.2-.2-.2-.5-.1-.9,0-.4.3-.7.6-.9.4-.2.8-.3,1.2-.3s1.1.1,1.5.4c.4.3.6.7.6,1.2,0,.4-.2.8-.4,1.1-.1.1-.3.2-.5.4-.2.1-.4.2-.5.3-.1,0-.3.1-.5.3-.3.1-.5.2-.6.3-.1,0-.3.2-.5.3-.4.2-.6.5-.7.8h1.9c.4,0,.7,0,.9-.2.2-.1.4-.4.5-.7h.2Z"/>
            <path class="cls-4" d="M526.8,98.7c.7,0,1.3.3,1.8.8.4.6.7,1.3.7,2.2s-.2,1.7-.7,2.2c-.4.6-1,.8-1.8.8s-1.3-.3-1.8-.8c-.4-.6-.7-1.3-.7-2.2s.2-1.7.7-2.2c.4-.6,1-.8,1.8-.8ZM527.7,103.5c.1-.6.1-1.2,0-2-.1-.8-.3-1.4-.5-1.9-.2-.5-.5-.7-.8-.6-.3,0-.5.4-.6.9-.1.6-.1,1.2,0,2,.1.8.3,1.4.5,1.9.2.4.5.6.8.6.3,0,.5-.3.6-.9Z"/>
          </g>
          <path class="cls-4" d="M518.1,100.5c.3.3.5.6.4,1,0,.2-.1.4-.3.6-.3.3-.8.5-1.3.5v.7h-.2v-.7c-.4,0-.8-.1-1.1-.3-.3-.2-.5-.4-.5-.7,0-.3,0-.5.1-.6.1-.2.3-.2.6-.2.2,0,.3,0,.5.2.1.1.2.2.2.4-.1,0-.3,0-.4.1,0,0-.1.2,0,.4,0,.3.3.4.7.4v-1.6h0c-.4-.2-.7-.4-.8-.5-.3-.3-.5-.6-.5-1,0-.4.2-.7.5-.8.3-.2.5-.2.9-.2v-.7h.2v.7h0c.1,0,.2,0,.3,0,.1,0,.2,0,.3,0,.2,0,.3,0,.4-.1h.1v1.4c0,0,0,0,0,0,0-.4-.2-.6-.3-.8-.1-.2-.4-.3-.6-.3,0,0,0,0,0,0v1.3c.3.2.5.2.5.3.4.2.6.3.7.4ZM516.7,99.7v-1.1c-.3,0-.5.2-.5.5,0,.2.1.4.5.6ZM517.5,101.3c-.1-.1-.3-.3-.6-.4v1.4c.2,0,.4,0,.5-.2s.2-.2.2-.4c0-.2,0-.4-.1-.5Z"/>
          <path class="cls-6" d="M522.6,112.2c-5.8,0-10.4-4.7-10.4-10.4s4.7-10.4,10.4-10.4,10.4,4.7,10.4,10.4-4.7,10.4-10.4,10.4ZM522.6,91.6c-5.6,0-10.2,4.6-10.2,10.2s4.6,10.2,10.2,10.2,10.2-4.6,10.2-10.2-4.6-10.2-10.2-10.2Z"/>
        </g>
        <g>
          <g>
            <path class="cls-4" d="M418.4,103.5c0,.3,0,.6.1.7,0,.2.3.2.6.2v.2h-2.9v-.2c.3,0,.5,0,.6-.2,0-.2.1-.4.1-.7v-2.7c0-.3,0-.5-.1-.7,0-.2-.3-.2-.6-.2v-.2l1.9-.8h.2v4.8Z"/>
            <path class="cls-4" d="M421.8,98.7c.7,0,1.3.3,1.8.8.4.6.7,1.3.7,2.2s-.2,1.7-.7,2.2c-.4.6-1,.8-1.8.8s-1.3-.3-1.8-.8c-.4-.6-.7-1.3-.7-2.2s.2-1.7.7-2.2c.4-.6,1-.8,1.8-.8ZM422.7,103.5c.1-.6.1-1.2,0-2-.1-.8-.3-1.4-.5-1.9-.2-.5-.5-.7-.8-.6-.3,0-.5.4-.6.9-.1.6-.1,1.2,0,2,.1.8.3,1.4.5,1.9.2.4.5.6.8.6.3,0,.5-.3.6-.9Z"/>
          </g>
          <path class="cls-4" d="M414.7,100.5c.3.3.5.6.4,1,0,.2-.1.4-.3.6-.3.3-.8.5-1.3.5v.7h-.2v-.7c-.4,0-.8-.1-1.1-.3s-.5-.4-.5-.7c0-.3,0-.5.1-.6s.3-.2.6-.2c.2,0,.3,0,.5.2.1.1.2.2.2.4-.1,0-.3,0-.4.1s-.1.2,0,.4c0,.3.3.4.7.4v-1.6h0c-.4-.2-.7-.4-.8-.5-.3-.3-.5-.6-.5-1,0-.4.2-.7.5-.8.3-.2.5-.2.9-.2v-.7h.2v.7h0c.1,0,.2,0,.3,0s.2,0,.3,0c.2,0,.3,0,.4-.1h.1v1.4c0,0,0,0,0,0,0-.4-.2-.6-.3-.8-.1-.2-.4-.3-.6-.3,0,0,0,0,0,0v1.3c.3.2.5.2.5.3.4.2.6.3.7.4ZM413.2,99.7v-1.1c-.3,0-.5.2-.5.5,0,.2.1.4.5.6ZM414,101.3c-.1-.1-.3-.3-.6-.4v1.4c.2,0,.4,0,.5-.2s.2-.2.2-.4c0-.2,0-.4-.1-.5Z"/>
          <path class="cls-6" d="M418.6,112.2c-5.8,0-10.4-4.7-10.4-10.4s4.7-10.4,10.4-10.4,10.4,4.7,10.4,10.4-4.7,10.4-10.4,10.4ZM418.6,91.6c-5.6,0-10.2,4.6-10.2,10.2s4.6,10.2,10.2,10.2,10.2-4.6,10.2-10.2-4.6-10.2-10.2-10.2Z"/>
        </g>
      </g>
    </g>
  </g>
</svg>